<?xml version="1.0" encoding="UTF-8" standalone="no"?>
<!-- Created with Inkscape (http://www.inkscape.org/) -->

<svg
   width="210mm"
   height="297mm"
   viewBox="0 0 210 297"
   version="1.1"
   id="svg1"
   xml:space="preserve"
   inkscape:version="1.4.4 (dcaf3e7, 2026-05-05)"
   sodipodi:docname="CarTemplatesvg.svg"
   xmlns:inkscape="http://www.inkscape.org/namespaces/inkscape"
   xmlns:sodipodi="http://sodipodi.sourceforge.net/DTD/sodipodi-0.dtd"
   xmlns="http://www.w3.org/2000/svg"
   xmlns:svg="http://www.w3.org/2000/svg"><sodipodi:namedview
     id="namedview1"
     pagecolor="#ffffff"
     bordercolor="#000000"
     borderopacity="0.25"
     inkscape:showpageshadow="2"
     inkscape:pageopacity="0.0"
     inkscape:pagecheckerboard="0"
     inkscape:deskcolor="#d1d1d1"
     inkscape:document-units="mm"
     inkscape:zoom="0.68862935"
     inkscape:cx="397.16576"
     inkscape:cy="561.25984"
     inkscape:window-width="1920"
     inkscape:window-height="991"
     inkscape:window-x="-9"
     inkscape:window-y="-9"
     inkscape:window-maximized="1"
     inkscape:current-layer="layer3" /><defs
     id="defs1"><inkscape:path-effect
       effect="bspline"
       id="path-effect5"
       is_visible="true"
       lpeversion="1.3"
       weight="33.333333"
       steps="2"
       helper_size="0"
       apply_no_weight="true"
       apply_with_weight="true"
       only_selected="false"
       uniform="false" /></defs><g
     inkscape:label="Layer 1"
     inkscape:groupmode="layer"
     id="layer1"
     sodipodi:insensitive="true"><path
       style="fill:#000000"
       d="m 96.994902,233.2185 c 0.19099,-0.0764 0.4192,-0.067 0.50712,0.0209 0.0879,0.0879 -0.0683,0.15045 -0.34727,0.13896 -0.30822,-0.0127 -0.37092,-0.0754 -0.15985,-0.15985 z m 2.81111,-1.06007 c 0.0148,-1.10355 -0.0566,-1.26162 -0.64484,-1.42884 -0.43861,-0.12467 -0.12663,-0.18355 0.926048,-0.17475 0.87312,0.007 1.26007,0.0629 0.85989,0.12349 -0.88367,0.13387 -1.058668,1.13341 -0.19844,1.13341 0.29105,0 0.52917,0.10792 0.52917,0.23981 0,0.1319 -0.23812,0.17755 -0.52917,0.10144 -0.4125,-0.10788 -0.52916,-0.008 -0.52916,0.45249 0,0.48759 0.11562,0.56877 0.66146,0.46442 0.3638,-0.0695 0.66145,-0.0239 0.66145,0.10145 0,0.12534 -0.39443,0.22789 -0.87652,0.22789 -0.870068,0 -0.876398,-0.009 -0.859888,-1.24081 z m 3.919238,0.91008 c 0.0373,-0.18641 -0.25331,-0.36745 -0.66595,-0.41488 -0.80256,-0.0923 -0.73559,-0.57731 0.0797,-0.57731 0.43491,0 0.47031,-0.0965 0.24897,-0.67868 -0.3186,-0.838 -0.32279,-0.98007 -0.0234,-0.79506 0.12903,0.0797 0.31855,0.59251 0.42116,1.13949 0.17518,0.93378 0.50343,1.37913 1.02343,1.38854 0.12319,0.002 0.18272,-0.59134 0.1323,-1.31903 -0.0884,-1.27532 -0.0666,-1.32308 0.60352,-1.32292 1.01146,2.4e-4 1.38125,0.55595 0.93821,1.40991 -0.24905,0.48004 -0.44036,0.60352 -0.6344,0.40947 -0.41737,-0.41736 -0.71983,0.23372 -0.32794,0.70592 0.27117,0.32672 0.15399,0.38528 -0.77097,0.38528 -0.73147,0 -1.06894,-0.10893 -1.02459,-0.33073 z m 2.53294,-1.87401 c 0.0495,-0.25521 -0.0833,-0.44109 -0.31511,-0.44109 -0.49153,0 -0.78819,0.43131 -0.55555,0.80771 0.23932,0.38724 0.7676,0.16479 0.87066,-0.36662 z m 0.19429,1.96483 c -0.0816,-0.13195 0.09,-0.17759 0.38126,-0.10143 0.6178,0.16156 0.69589,0.34134 0.14827,0.34134 -0.20969,0 -0.44798,-0.10796 -0.52953,-0.23991 z m 2.36787,-0.0216 c -0.0916,-0.14819 0.0108,-0.19537 0.2363,-0.10885 0.21887,0.084 0.51751,0.0788 0.66364,-0.0115 0.38904,-0.24044 0.0679,-0.86786 -0.52324,-1.02246 -0.71792,-0.18775 -0.71557,-1.50606 0.003,-1.50606 0.28245,0 0.58027,0.10796 0.66182,0.23991 0.0815,0.13195 -0.09,0.1776 -0.38126,0.10144 -0.75259,-0.19681 -0.66144,0.36433 0.17624,1.08486 0.46231,0.39767 0.64771,0.75836 0.53747,1.04564 -0.18336,0.47781 -1.11367,0.5977 -1.37366,0.17702 z m 2.1148,-1.19366 c 0,-0.80036 0.11906,-1.45521 0.26458,-1.45521 0.14552,0 0.26458,0.65485 0.26458,1.45521 0,0.80037 -0.11906,1.45521 -0.26458,1.45521 -0.14552,0 -0.26458,-0.65484 -0.26458,-1.45521 z m 1.32291,0 c 0,-1.45369 8.6e-4,-1.45521 0.8275,-1.45521 0.88395,0 1.26007,0.31372 1.48629,1.23966 0.2151,0.88041 -0.47976,1.67076 -1.4689,1.67076 h -0.84489 z m 1.5875,0 c 0,-0.89609 -0.0913,-1.07129 -0.59531,-1.14288 -0.54396,-0.0773 -0.59531,0.0213 -0.59531,1.14288 0,1.12155 0.0513,1.22014 0.59531,1.14288 0.50405,-0.0716 0.59531,-0.24679 0.59531,-1.14288 z m 1.05834,0 v -1.45521 l 0.92604,0.0396 c 0.80014,0.0342 0.82712,0.0546 0.19843,0.14986 -0.88367,0.13387 -1.05867,1.13341 -0.19843,1.13341 0.29104,0 0.52916,0.10583 0.52916,0.23519 0,0.12935 -0.20379,0.21865 -0.45288,0.19843 -0.24936,-0.0202 -0.49881,0.18654 -0.55508,0.46011 -0.086,0.4182 0.0254,0.47814 0.70349,0.37861 0.44313,-0.065 0.74542,-0.0207 0.67176,0.0984 -0.0737,0.11919 -0.51386,0.21671 -0.97821,0.21671 h -0.84428 z m -16.519798,0.69261 c -0.15994,-0.29883 -0.58748,-0.86347 -0.95011,-1.25475 -0.69055,-0.74512 -0.69215,-1.20905 -0.002,-0.63644 0.55311,0.45904 1.5563,2.12132 1.38412,2.29349 -0.0776,0.0776 -0.27188,-0.10346 -0.43182,-0.4023 z m -31.153639,-4.51147 c -2.883249,-0.47089 -5.523051,-2.58439 -6.88668,-5.51368 -0.972777,-2.08968 -1.039977,-5.64144 -0.142504,-7.53176 0.327422,-0.68964 0.595313,-1.35022 0.595313,-1.46796 0,-0.11775 0.647108,-0.89295 1.438019,-1.72268 1.806326,-1.89498 1.396115,-1.99876 -0.472501,-0.11954 -2.016027,2.02748 -2.280112,2.76423 -2.563348,7.15129 -0.133612,2.06953 -0.245479,3.92994 -0.248592,4.13426 -0.0047,0.30891 -0.592911,0.34176 -3.492078,0.19502 -1.917528,-0.0971 -3.911825,-0.28581 -4.431771,-0.41947 -0.519945,-0.13366 -1.648593,-0.38296 -2.508106,-0.55399 -0.859513,-0.17104 -1.734093,-0.4471 -1.943511,-0.61347 -0.869082,-0.69043 -2.168483,-2.16973 -2.460387,-2.80102 -0.172039,-0.37206 -0.417969,-0.88321 -0.546512,-1.1359 -0.419776,-0.82519 -0.276405,-5.6376 0.204891,-6.8774 0.528923,-1.36249 1.837103,-3.04118 3.229101,-4.14367 1.097395,-0.86915 2.612185,-1.22713 8.63542,-2.04076 1.600729,-0.21623 3.148541,-0.50121 3.439583,-0.63328 0.291042,-0.13207 2.076979,-0.47891 3.96875,-0.77076 7.058242,-1.08892 12.402989,-2.38213 13.875544,-3.35732 0.637316,-0.42206 1.526508,-0.98919 1.975982,-1.2603 0.449474,-0.2711 0.876756,-0.56895 0.949516,-0.66188 0.07276,-0.0929 0.48948,-0.34717 0.926042,-0.56499 0.436563,-0.21782 0.853281,-0.46977 0.926042,-0.5599 0.07276,-0.0901 1.02526,-0.62611 2.116667,-1.19105 1.091406,-0.56495 2.024062,-1.11647 2.072569,-1.22561 0.04851,-0.10914 0.206638,-0.19844 0.351402,-0.19844 0.144763,0 1.129601,-0.41672 2.188527,-0.92604 1.058926,-0.50932 2.061654,-0.92604 2.228286,-0.92604 0.166631,0 0.302966,-0.10338 0.302966,-0.22972 0,-0.12635 0.738144,-0.43683 1.64032,-0.68997 0.902177,-0.25314 1.884442,-0.61433 2.182813,-0.80264 0.298371,-0.18832 0.959216,-0.42736 1.468536,-0.53121 0.50932,-0.10385 1.0451,-0.28128 1.19062,-0.39429 0.4714,-0.36609 4.165508,-1.09325 6.865508,-1.35143 4.11497,-0.39348 45.54279,-0.18711 45.95869,0.22894 0.18183,0.18191 0.52816,0.33073 0.76961,0.33073 0.24146,0 1.14038,0.3713 1.99761,0.82511 1.88029,0.9954 9.82908,8.80942 11.27225,11.08114 1.5844,2.49403 1.7817,3.56221 1.83264,9.92188 0.0596,7.44236 0.0874,7.19169 -0.89681,8.0958 -1.03071,0.94685 -2.72235,1.92497 -4.09277,2.36647 -0.55026,0.17727 -1.11953,0.41467 -1.26505,0.52755 -0.14552,0.11287 -1.03849,0.34542 -1.98437,0.51677 -0.94589,0.17135 -1.95792,0.41404 -2.24896,0.53931 -0.75441,0.32473 -3.70157,0.60028 -4.32022,0.40392 -0.47307,-0.15014 -0.53812,-0.5016 -0.70226,-3.79411 -0.18686,-3.74832 -0.49942,-5.613 -0.94084,-5.613 -0.13992,0 -0.25439,-0.16601 -0.25439,-0.3689 0,-0.20289 -0.35719,-0.75126 -0.79375,-1.2186 -0.43656,-0.46735 -0.79751,-0.92642 -0.80211,-1.02017 -0.0138,-0.28164 -2.37218,-1.62754 -3.80836,-2.17341 -1.72164,-0.65437 -5.72812,-0.72741 -6.23745,-0.11372 -0.18115,0.21829 -0.51083,0.39688 -0.73261,0.39688 -0.50359,0 -2.91117,1.58801 -3.67054,2.42104 -0.9257,1.01549 -1.98821,3.30545 -2.09616,4.51771 l -0.10071,1.13104 0.25152,-1.17144 c 0.13834,-0.64429 0.36375,-1.24079 0.50091,-1.32556 0.13717,-0.0848 0.32953,-0.47342 0.42747,-0.86367 0.20882,-0.83201 2.32521,-3.12067 3.44868,-3.72939 1.82907,-0.99103 2.19816,-1.07602 4.74957,-1.09369 2.42312,-0.0168 2.77206,0.0466 4.14544,0.75353 1.35903,0.69951 2.55894,1.67524 3.66864,2.98323 0.99069,1.1677 1.71092,3.60742 1.71092,5.7956 0,1.2031 -0.13161,2.3051 -0.30018,2.51354 -0.16509,0.20415 -0.37642,0.72837 -0.46961,1.16493 -0.33816,1.58415 -2.46049,3.77265 -4.88391,5.03618 -1.23699,0.64495 -1.7152,0.74027 -3.70417,0.73829 -1.94982,-0.002 -2.51161,-0.11045 -3.84162,-0.74202 -0.8568,-0.40687 -1.77953,-0.96147 -2.05052,-1.23245 -0.27098,-0.27099 -0.61176,-0.4927 -0.75728,-0.4927 -0.14552,0 -0.26459,-0.18234 -0.26459,-0.40518 0,-0.22285 -0.16906,-0.47006 -0.3757,-0.54935 -0.4241,-0.16275 -1.72696,-2.69069 -2.0219,-3.92314 -0.15253,-0.63735 -0.19986,-0.45699 -0.22115,0.84277 l -0.0271,1.65365 h -26.06144 c -20.664036,0 -26.064866,-0.0685 -26.077875,-0.33073 -0.009,-0.1819 -0.0022,-1.49415 0.01521,-2.91611 0.03385,-2.76806 -0.497136,-4.8683 -1.721046,-6.80733 -1.371562,-2.17296 -3.589726,-3.83865 -5.421506,-4.07118 -0.920518,-0.11686 -1.024805,-0.0974 -0.459695,0.0859 4.900166,1.58943 7.609088,5.9927 6.800531,11.05406 -0.15653,0.97984 -0.37409,1.84403 -0.483468,1.92041 -0.109378,0.0764 -0.366895,0.55364 -0.57226,1.06055 -0.466348,1.15112 -2.959987,3.59887 -3.908976,3.83705 -0.390155,0.0979 -0.77887,0.29049 -0.86381,0.42792 -0.151935,0.24584 -2.911659,0.79358 -3.687322,0.73185 -0.218281,-0.0174 -0.894914,-0.11292 -1.503629,-0.21234 z m 3.626022,-0.75755 c 3.507232,-0.97267 5.645238,-3.08511 6.583378,-6.50466 0.517742,-1.88719 0.526527,-2.10421 0.150761,-3.72448 -0.654213,-2.82091 -0.690639,-2.89342 -2.464604,-4.9059 -0.819915,-0.93016 -1.479387,-1.3498 -3.014514,-1.91823 -1.868136,-0.69174 -4.612705,-0.99162 -5.052291,-0.55204 -0.09656,0.0966 -0.770243,0.385 -1.497063,0.64096 -1.332006,0.46908 -3.967545,2.69325 -3.970383,3.35066 -7.85e-4,0.1819 -0.09439,0.33073 -0.208004,0.33073 -0.783076,0 -1.39504,4.95206 -0.872165,7.05763 0.719502,2.89738 2.97911,5.1453 6.168087,6.13618 2.108998,0.6553 2.133504,0.65583 4.176798,0.0891 z m -4.179055,-2.36314 c -1.590101,-0.54926 -3.331947,-2.37022 -3.783905,-3.95576 -0.458527,-1.60859 -0.394187,-3.7131 0.153618,-5.02474 0.550762,-1.31873 2.490145,-3.13881 3.575932,-3.35597 1.456302,-0.29126 3.937626,-0.1886 4.871388,0.20155 2.435479,1.01761 4.600979,5.35567 3.613087,7.23796 -0.132619,0.25269 -0.440123,1.02498 -0.683342,1.7162 -0.243218,0.69123 -0.522881,1.25677 -0.621473,1.25677 -0.09859,0 -0.484037,0.28261 -0.856545,0.62802 -0.96875,0.89827 -3.060058,1.75883 -4.179585,1.71987 -0.527205,-0.0183 -1.467334,-0.2091 -2.089175,-0.4239 z m 5.144057,-1.2299 c 0.606661,-0.4048 1.440098,-1.22241 1.852083,-1.8169 0.662592,-0.95612 0.748693,-1.31259 0.745852,-3.0879 -0.0039,-2.41725 -0.339001,-3.16507 -2.074258,-4.62852 l -1.28372,-1.08264 h -2.303643 c -2.150378,0 -2.364223,0.0506 -3.214197,0.76125 -1.646572,1.37659 -2.392107,2.81269 -2.400773,4.62453 -0.0074,1.54993 0.196081,2.67421 0.533693,2.94859 0.08953,0.0728 0.360509,0.48433 0.602182,0.9146 0.244467,0.43525 1.066126,1.11988 1.852083,1.54322 1.871379,1.00797 4.015484,0.94158 5.690698,-0.17623 z m 70.800353,3.54285 c 1.12934,-0.2846 2.31119,-0.75766 2.62633,-1.05125 0.31513,-0.29359 0.76034,-0.60095 0.98935,-0.68303 0.22901,-0.0821 0.86564,-0.73951 1.41474,-1.46098 1.88426,-2.47572 2.31233,-6.63163 0.96966,-9.41378 -0.87486,-1.81279 -3.10531,-3.90553 -4.6122,-4.32743 -0.66325,-0.1857 -1.2694,-0.44037 -1.347,-0.56593 -0.18781,-0.30388 -3.43236,-0.29351 -4.01606,0.0128 -0.25269,0.13262 -0.99521,0.43345 -1.65006,0.66852 -1.3882,0.49831 -2.26923,1.22088 -3.41183,2.79821 -0.84099,1.16095 -1.87983,4.13102 -1.87983,5.37447 0,0.99723 1.20626,4.54502 1.76957,5.20455 1.05199,1.23171 2.3199,2.38187 2.62571,2.38187 0.17772,0 0.36281,0.11208 0.41131,0.24907 0.0674,0.1904 3.17511,1.23212 3.92466,1.31558 0.0728,0.008 1.0563,-0.21812 2.18565,-0.50271 z m -3.77315,-2.16989 c -1.64055,-0.69046 -2.03212,-0.92738 -2.82281,-1.70797 -3.27013,-3.22837 -2.27665,-8.81882 1.87548,-10.55369 1.14228,-0.47728 3.35392,-0.55118 4.79247,-0.16015 0.93835,0.25507 2.30194,1.30662 3.19503,2.4639 1.19638,1.55027 1.16658,5.26361 -0.0577,7.19458 -0.4206,0.66337 -0.90937,1.21047 -1.08615,1.21579 -0.17678,0.005 -0.44612,0.24266 -0.59853,0.52744 -0.15475,0.28916 -0.68587,0.59446 -1.20286,0.69145 -0.50916,0.0955 -0.99099,0.27924 -1.07073,0.40826 -0.1964,0.31778 -2.20564,0.26488 -3.02417,-0.0796 z m 4.79227,-1.46735 c 1.47322,-1.0136 2.61606,-3.17119 2.61606,-4.93892 0,-2.39309 -2.09573,-5.22391 -4.15315,-5.60989 -1.33856,-0.25111 -3.89797,0.003 -4.41078,0.43774 -2.38849,2.02538 -2.81315,2.80215 -2.81315,5.14575 0,2.35301 0.7297,3.83362 2.4721,5.01604 1.20837,0.82003 1.59315,0.91345 3.48167,0.84533 1.29565,-0.0467 1.81266,-0.21175 2.80725,-0.89605 z M 57.970777,221.1623 c 0.0866,-0.76398 0.23848,-2.31179 0.337506,-3.43958 l 0.180048,-2.05052 h -7.213908 -7.213907 l 0.123858,1.28902 c 0.06812,0.70896 0.257724,1.4531 0.421336,1.65364 1.749703,2.14466 1.945232,2.29608 3.686919,2.85512 1.612267,0.51751 5.004981,0.94438 8.300347,1.04436 l 1.220343,0.037 z m 22.669565,-7.60677 v -8.99583 l -8.268229,0.0287 c -8.183319,0.0284 -14.670409,0.27648 -16.20573,0.6197 -0.436562,0.0976 -1.06164,0.23201 -1.389062,0.29872 -0.488761,0.0996 -0.595724,0.29796 -0.597613,1.10842 -0.0013,0.54293 -0.07775,1.61534 -0.169964,2.38313 -0.230361,1.91798 -1.554007,3.30457 -3.719939,3.89683 -0.842465,0.23036 -1.738499,0.53271 -1.991186,0.67187 -0.252687,0.13916 -1.294484,0.25303 -2.315104,0.25303 -1.679285,0 -1.855674,0.0503 -1.855674,0.52916 0,0.51657 0.176389,0.52917 7.410476,0.52917 h 7.410476 l 0.415291,-1.03792 c 0.22841,-0.57085 0.584634,-1.10289 0.791608,-1.18232 0.206974,-0.0794 0.38183,-0.29697 0.388568,-0.48344 0.0067,-0.18646 0.486226,-0.69622 1.065528,-1.13278 0.579302,-0.43656 1.201925,-0.91281 1.383606,-1.05833 0.181681,-0.14552 0.917739,-0.56224 1.635685,-0.92604 1.177474,-0.59666 1.617455,-0.66146 4.491122,-0.66146 2.591253,0 3.383267,0.0944 4.2441,0.5058 1.640184,0.78388 3.226969,2.05401 3.747858,2.99993 0.260435,0.47294 0.556777,0.85989 0.658538,0.85989 0.101761,0 0.50899,0.68461 0.904953,1.52136 0.634437,1.34068 0.734717,1.92196 0.844431,4.89479 0.113753,3.08228 0.16747,3.37344 0.62238,3.37344 0.477691,0 0.497881,-0.36482 0.497881,-8.99584 z m 49.741678,6.09097 c 0,-3.14463 0.67529,-6.02223 1.63358,-6.96117 0.2657,-0.26033 0.48309,-0.57405 0.48309,-0.69716 0,-0.43506 2.2607,-2.41618 3.10885,-2.72439 0.47294,-0.17186 0.8599,-0.40761 0.8599,-0.5239 0,-0.11629 0.17859,-0.21143 0.39687,-0.21143 0.32758,0 0.39688,-0.48507 0.39688,-2.77813 0,-2.47098 -0.0512,-2.77767 -0.46302,-2.77407 -0.67595,0.006 -0.99423,0.28184 -1.52136,1.31887 -0.25889,0.50932 -0.55936,0.98557 -0.66771,1.05833 -0.10834,0.0728 -0.46916,0.60854 -0.8018,1.19062 -0.33265,0.58209 -0.87684,1.53459 -1.20931,2.11667 -0.33247,0.58208 -1.1145,2.07037 -1.73784,3.30729 -0.62335,1.23693 -1.2065,2.30849 -1.29589,2.38125 -0.0894,0.0728 -0.37445,0.78714 -0.63344,1.5875 -0.259,0.80037 -0.56131,1.57427 -0.6718,1.71979 -0.11049,0.14552 -0.34131,0.9492 -0.51292,1.78594 l -0.31201,1.52136 h -22.87601 c -20.090158,0 -22.894559,0.0483 -23.028307,0.39687 -0.08376,0.21828 -0.08376,0.57547 0,0.79375 0.133847,0.3488 3.101923,0.39688 24.502277,0.39688 h 24.34997 z m 25.66458,2.35846 c 3.22508,-0.78153 4.39059,-1.10425 4.627,-1.28117 0.14729,-0.11022 0.68452,-0.36487 1.19384,-0.56587 0.98019,-0.38684 2.12504,-1.11168 3.10885,-1.96831 0.46471,-0.40463 0.59532,-0.80066 0.59532,-1.80517 v -1.28683 l -6.98975,0.0889 c -3.84435,0.0489 -7.07031,0.16957 -7.16878,0.26823 -0.0985,0.0987 -0.0929,1.73751 0.0125,3.64189 l 0.19149,3.46251 1.75177,-0.16487 c 0.96348,-0.0907 2.16849,-0.26585 2.67781,-0.38927 z m -46.19958,-6.79578 c 0.0879,-2.72852 0.21324,-6.34427 0.27847,-8.035 l 0.1186,-3.07406 -7.85656,0.12356 c -4.321108,0.0679 -10.773593,0.20113 -14.338854,0.29593 l -6.482292,0.17238 -0.07044,7.40476 c -0.03874,4.07262 -0.01271,7.5552 0.05784,7.73906 0.101121,0.26352 3.093086,0.33431 14.130818,0.33431 h 14.002548 z m 17.68885,2.71198 c 0.29103,-1.16417 0.63334,-2.18297 0.76069,-2.26401 0.12735,-0.081 0.41517,-0.76565 0.63959,-1.52136 0.22442,-0.7557 0.52249,-1.37401 0.66237,-1.37401 0.13988,0 0.25433,-0.16198 0.25433,-0.35995 0,-0.19798 0.27222,-0.76352 0.60492,-1.25677 0.3327,-0.49325 0.77219,-1.31354 0.97665,-1.82286 0.20445,-0.50932 0.52755,-1.02126 0.718,-1.13763 0.19045,-0.11637 0.34627,-0.36115 0.34627,-0.54395 0,-0.1828 0.60318,-1.26041 1.3404,-2.39471 0.73723,-1.13429 1.30277,-2.09097 1.25678,-2.12596 -0.12057,-0.0917 -23.8607,0.39007 -23.9568,0.48618 -0.0442,0.0442 -0.20096,3.04503 -0.34837,6.66852 -0.14741,3.6235 -0.33847,7.33401 -0.42458,8.24558 l -0.15658,1.65741 8.3986,-0.0699 8.3986,-0.0699 z m 33.0493,-3.57188 h 4.98644 v -1.71979 -1.71979 h -3.134 c -3.67222,0 -3.8552,-0.10605 -4.43506,-2.57036 -0.51132,-2.17301 -0.49355,-6.12949 0.0284,-6.32979 0.21828,-0.0838 0.39688,-0.37769 0.39688,-0.65316 0,-0.45432 0.22124,-0.50086 2.38125,-0.50086 1.77745,0 2.38125,-0.0872 2.38125,-0.34396 0,-0.73624 -0.66218,-0.97895 -2.67077,-0.97895 -1.85673,0 -2.10388,-0.064 -2.81012,-0.72761 -0.4259,-0.40018 -0.88497,-0.91953 -1.02017,-1.15411 -0.36314,-0.63006 -4.44614,-4.98877 -4.67759,-4.99345 -0.10914,-0.002 -0.19844,1.64937 -0.19844,3.67016 v 3.67416 l -2.71198,0.15804 c -1.49159,0.0869 -4.20026,0.26932 -6.01927,0.40533 -1.81901,0.136 -3.75377,0.25697 -4.29948,0.26883 l -0.99219,0.0216 v 3.54401 3.54401 l 3.10886,0.0949 c 2.59988,0.0794 3.29586,0.19309 4.25112,0.69436 2.4851,1.30405 4.66463,3.44315 5.353,5.25367 l 0.26819,0.70541 2.41361,-0.17133 c 1.32748,-0.0942 4.6575,-0.17132 7.40004,-0.17132 z M 50.477841,212.16887 c 2.246413,-1.03648 2.564032,-1.52091 2.78587,-4.24894 l 0.18933,-2.32828 -0.627704,0.12947 c -0.345237,0.0712 -1.233655,0.19777 -1.974261,0.28123 -2.585777,0.29142 -4.778055,1.83308 -6.03471,4.24375 -0.378689,0.72644 -0.688525,1.6654 -0.688525,2.08657 v 0.76576 l 2.447396,-0.12907 c 1.868213,-0.0985 2.791775,-0.28796 3.902604,-0.80049 z m 14.279838,-2.04263 c 0.214067,-0.13538 0.309034,-0.32632 0.211037,-0.42432 -0.098,-0.098 -0.370944,0.0146 -0.606549,0.2502 -0.465538,0.46554 -0.229555,0.56943 0.395512,0.17412 z m 100.681631,-2.67737 c 0,-2.06223 -0.11516,-3.03758 -0.43738,-3.70416 -0.24057,-0.49767 -0.56841,-1.23879 -0.72854,-1.64694 l -0.29115,-0.74211 -2.31106,0.0806 c -2.06828,0.0722 -2.32144,0.13623 -2.40981,0.60981 -0.0543,0.29104 -0.26407,0.62438 -0.46613,0.74075 -0.44209,0.25461 -0.52703,4.94221 -0.10292,5.67898 0.14546,0.25269 0.38213,0.79077 0.52593,1.19573 l 0.26145,0.7363 2.97981,-0.0748 2.9798,-0.0748 z m -83.878274,-4.69428 c 0.538637,-0.8858 3.2864,-3.75214 4.420716,-4.61149 2.085319,-1.57981 2.761547,-2.0362 3.026715,-2.04275 0.164083,-0.004 0.42213,-0.15652 0.57344,-0.33884 0.476595,-0.57426 6.292595,-3.37268 7.009495,-3.37268 0.23203,0 0.48521,-0.10247 0.56261,-0.22771 0.0774,-0.12523 0.8881,-0.42887 1.80155,-0.67475 0.91345,-0.24588 1.898948,-0.55633 2.189988,-0.68989 0.29104,-0.13357 1.52459,-0.42524 2.74122,-0.64817 1.81621,-0.33279 4.72791,-0.40226 16.27187,-0.38824 7.74452,0.009 16.55557,0.16385 19.61609,0.34383 5.35352,0.31484 5.60887,0.35524 6.99852,1.10741 1.39249,0.7537 3.08806,2.70325 3.72796,4.28637 0.54026,1.33659 0.78289,0.53998 0.78289,-2.57038 0,-3.0058 -0.0301,-3.18286 -0.59531,-3.50573 -0.94146,-0.53775 -44.99859,-0.63446 -48.24659,-0.1059 -2.570018,0.41823 -5.226678,1.05746 -6.059148,1.45791 -0.29104,0.14 -1.184011,0.45992 -1.984376,0.71093 -0.800364,0.25101 -1.693333,0.60501 -1.984375,0.78667 -0.291042,0.18166 -0.91612,0.41097 -1.389062,0.50957 -0.472943,0.0986 -0.859896,0.27966 -0.859896,0.40233 0,0.12267 -0.446485,0.36977 -0.992188,0.5491 -0.545703,0.17934 -1.5875,0.65518 -2.315104,1.05743 -0.727604,0.40225 -2.037292,1.09316 -2.910417,1.53534 -1.563933,0.79204 -4.19202,2.3916 -4.8187,2.93285 -0.17643,0.15238 -0.622915,0.41472 -0.992187,0.58297 -0.369273,0.16825 -0.671405,0.39629 -0.671405,0.50676 0,0.11047 -0.625078,0.39537 -1.389062,0.63311 -0.763985,0.23774 -1.587444,0.53974 -1.829909,0.67111 -0.242466,0.13138 -1.254497,0.37095 -2.248959,0.53239 -0.994461,0.16144 -2.046237,0.40392 -2.337278,0.53884 -0.291042,0.13492 -1.541198,0.41114 -2.778125,0.61381 -2.151157,0.35246 -1.892502,0.36693 5.947776,0.33266 l 8.196736,-0.0358 z m 24.942334,0.57994 c 3.75914,-0.15235 3.77032,-0.15468 3.77032,-0.78675 0,-0.53898 -0.12883,-0.63386 -0.8599,-0.6333 -2.21441,0.002 -17.867865,0.53733 -20.571364,0.70392 -1.67349,0.10313 -3.816615,0.19515 -4.7625,0.20449 -1.553761,0.0153 -2.10083,0.20328 -2.112615,0.72576 -0.0044,0.19493 18.407409,0.0343 24.536059,-0.21412 z m 19.11615,-0.88888 c 4.29287,-0.1309 8.43029,-0.24457 9.19427,-0.25262 0.99638,-0.0105 1.38906,-0.11766 1.38906,-0.3791 0,-0.9559 -0.45042,-0.97681 -12.20321,-0.56655 -6.31235,0.22035 -11.80442,0.47432 -12.2046,0.56438 -0.5018,0.11294 -0.7276,0.33088 -0.7276,0.70229 0,0.52314 0.0964,0.53326 3.37343,0.35407 1.8554,-0.10146 6.88579,-0.29157 11.17865,-0.42247 z m -29.765638,-0.79591 c 1.16417,-0.12968 4.871918,-0.31665 8.239458,-0.41547 3.36754,-0.0988 6.23431,-0.25425 6.37061,-0.34538 0.13631,-0.0911 0.46177,-2.13022 0.72326,-4.53131 0.26148,-2.4011 0.57963,-4.47874 0.70699,-4.61698 0.12736,-0.13825 0.23157,-0.54138 0.23157,-0.89585 v -0.64449 l -3.95815,0.12705 c -2.17699,0.0699 -4.11175,0.25167 -4.29948,0.40399 -0.18773,0.15233 -1.29383,0.48632 -2.45801,0.74222 -1.16416,0.2559 -2.354788,0.61725 -2.645828,0.80301 -0.29104,0.18575 -0.97565,0.41932 -1.52135,0.51904 -0.54571,0.0997 -0.99219,0.28713 -0.99219,0.41645 0,0.12933 -0.18586,0.23514 -0.41303,0.23514 -0.4453,0 -4.124096,1.74143 -5.730137,2.71247 -2.81041,1.69923 -6.821419,5.05899 -6.821419,5.71386 0,0.35493 8.775546,0.1987 12.567706,-0.22375 z m 41.407308,-0.26508 c 0,-0.29104 -0.16745,-0.52917 -0.37211,-0.52917 -0.24184,0 -0.32366,0.18525 -0.23372,0.52917 0.0761,0.29104 0.24355,0.52917 0.3721,0.52917 0.12855,0 0.23373,-0.23813 0.23373,-0.52917 z m -12.56771,-0.82691 c 3.92906,-0.15274 7.94038,-0.33667 8.91404,-0.40874 1.76025,-0.13029 1.76864,-0.13467 1.47889,-0.77061 -0.16028,-0.35177 -0.37957,-0.63957 -0.48732,-0.63957 -0.10774,0 -0.41606,-0.53534 -0.68513,-1.18964 -0.26908,-0.6543 -0.57296,-1.19008 -0.67529,-1.19062 -0.10233,-5.5e-4 -0.43107,-0.50701 -0.73055,-1.12547 -0.86063,-1.77737 -1.69015,-3.19786 -2.19225,-3.75406 -0.25466,-0.2821 -0.46302,-0.66905 -0.46302,-0.8599 0,-0.27914 -1.68133,-0.34698 -8.59895,-0.34698 -8.00931,0 -8.59964,0.0318 -8.6089,0.46302 -0.0147,0.68685 -0.71495,5.55442 -1.01812,7.0776 -0.14482,0.72761 -0.27041,1.75237 -0.27909,2.27726 l -0.0158,0.95434 3.10885,-0.10446 c 1.70987,-0.0575 6.32355,-0.22943 10.25261,-0.38217 z m 23.28333,-0.99652 3.175,-0.16095 0.0858,-0.89829 c 0.0472,-0.49406 -0.0124,-0.97031 -0.1323,-1.05833 -0.32826,-0.24092 -1.93785,-2.6567 -1.93785,-2.90846 0,-0.50454 -2.57229,-2.88854 -3.30729,-3.06522 -1.4005,-0.33663 -13.01487,-1.26426 -14.33246,-1.14472 l -0.87282,0.0792 0.64915,1.19063 c 0.35704,0.65484 0.89653,1.69664 1.19888,2.3151 0.30234,0.61846 0.63344,1.12561 0.73577,1.12699 0.10233,0.001 0.4211,0.53716 0.70838,1.19062 0.28727,0.65347 0.59558,1.18812 0.68513,1.18812 0.0896,0 0.30962,0.32742 0.48905,0.7276 0.17942,0.40019 0.50474,1.00437 0.72293,1.34263 l 0.39672,0.61501 4.28046,-0.18949 c 2.35426,-0.10422 5.70922,-0.26192 7.45547,-0.35043 z m 13.62605,-0.93536 c 0,-0.32083 -7.17974,-7.21584 -8.18774,-7.86304 -1.42034,-0.91195 -1.60185,-0.92946 -1.60185,-0.15455 0,0.37393 0.65027,1.29787 1.72247,2.4474 0.94735,1.01568 2.04868,2.24417 2.44739,2.72999 2.36851,2.88593 2.46001,2.95185 4.09837,2.95253 0.83675,3.4e-4 1.52136,-0.0502 1.52136,-0.11233 z M 30.237216,183.25623 c -1.018646,-0.19283 -2.529666,-0.36001 -3.357823,-0.3715 -0.828157,-0.0115 -1.570982,-0.12647 -1.650723,-0.25549 -0.07974,-0.12903 -0.58004,-0.31621 -1.111774,-0.41596 -1.35233,-0.2537 -3.703675,-1.63631 -4.517619,-2.65639 -0.376079,-0.47132 -0.904499,-1.43812 -1.174268,-2.14845 -0.461022,-1.2139 -0.490501,-2.43139 -0.490703,-20.26636 -1.97e-4,-17.30986 0.03935,-19.06273 0.45072,-19.97605 0.512117,-1.13699 1.878204,-2.72095 2.346695,-2.72095 0.171917,0 0.447523,-0.1626 0.612459,-0.36134 0.164936,-0.19873 1.042718,-0.51421 1.950626,-0.70106 0.907909,-0.18685 1.769805,-0.42486 1.915326,-0.52891 0.145521,-0.10406 1.395677,-0.24314 2.778125,-0.30909 1.382448,-0.0659 2.126589,-0.0749 1.653646,-0.0198 -0.472942,0.0551 -0.859896,0.21195 -0.859896,0.34869 0,0.13674 -0.238125,0.24861 -0.529166,0.24861 -0.411574,0 -0.529167,0.17639 -0.529167,0.79375 0,0.43656 -0.119063,0.79375 -0.264583,0.79375 -0.167947,0 -0.264584,2.01904 -0.264584,5.52794 0,4.79669 0.05536,5.54919 0.418515,5.68855 0.769173,0.29516 4.489266,0.17406 4.820235,-0.1569 0.228378,-0.22838 0.317501,-2.01084 0.317501,-6.35 0,-5.18584 -0.0557,-6.0325 -0.396876,-6.0325 -0.218281,0 -0.396875,-0.2294 -0.396875,-0.50977 0,-0.28037 -0.208359,-0.56422 -0.46302,-0.63077 -0.494758,-0.12929 1.751342,-0.27751 2.825884,-0.18647 0.981744,0.0832 1.778659,0.72312 2.589218,2.07924 l 0.73646,1.23214 v 22.37617 c 0,20.95784 -0.02935,22.40551 -0.463021,22.83921 -0.254661,0.25467 -0.46302,0.56625 -0.46302,0.6924 0,0.50871 -1.544026,1.87398 -2.395535,2.11819 -1.127111,0.32325 -1.748165,0.30185 -4.086757,-0.14086 z m 1.918229,-0.84409 c 0.233407,-0.50258 0.330729,-2.44842 0.330729,-6.61252 v -5.90038 h -2.645833 -2.645834 v 4.99469 c 0,4.18084 0.06658,5.04995 0.408638,5.33383 0.271943,0.22569 0.356257,0.57763 0.252048,1.05208 -0.232892,1.06036 0.91305,1.71365 3.175773,1.81047 0.620539,0.0266 0.865921,-0.12143 1.124479,-0.67817 z m 2.287455,0.20774 c 0.95143,-0.62723 1.991268,-1.80845 2.304247,-2.61755 0.330555,-0.85453 0.306041,-43.31595 -0.02569,-44.49892 -0.377461,-1.34603 -1.794633,-2.79845 -2.912365,-2.9848 -0.509323,-0.0849 -0.782895,-0.0949 -0.607938,-0.0222 0.245803,0.10217 0.288857,5.64563 0.189426,24.38991 -0.07077,13.34172 -0.172823,24.70416 -0.226781,25.24986 -0.112443,1.13722 0.14186,1.23338 1.279102,0.48366 z m -6.983809,-1.21126 c 0,-0.389 -0.151818,-0.66146 -0.368568,-0.66146 -0.202712,0 -0.440837,-0.18833 -0.529167,-0.41851 -0.08833,-0.23019 -0.160599,-10.58012 -0.160599,-22.99985 0,-19.71952 0.0503,-22.63164 0.396875,-22.97821 0.814061,-0.81407 0.482813,-1.04821 -1.229693,-0.86922 -0.894612,0.0935 -1.757815,0.26856 -1.918229,0.38901 -0.160414,0.12045 -0.841622,0.42199 -1.513795,0.67009 -1.177502,0.43461 -2.493018,1.5996 -3.111727,2.75567 -0.370665,0.6926 -0.421798,38.65147 -0.05379,39.93462 0.43359,1.51184 2.217161,3.28988 3.800894,3.78912 0.613761,0.19347 1.234991,0.43657 1.380512,0.54022 0.390178,0.27791 1.195619,0.44466 2.315104,0.47929 0.890129,0.0275 0.992188,-0.0374 0.992188,-0.63077 z m 5.087477,-20.90208 c 0.03322,-4.72943 0.06298,-9.81935 0.06615,-11.31094 l 0.0058,-2.71198 -2.711979,-0.0754 -2.71198,-0.0754 v 11.38634 11.38633 h 2.645834 2.645833 z m 143.825022,22.90931 c -0.39017,-0.12756 -1.07815,-0.63138 -1.52886,-1.11958 -0.45071,-0.48821 -1.02445,-1.10446 -1.27498,-1.36946 -0.42236,-0.44672 -0.46093,-2.11293 -0.52981,-22.88645 -0.0409,-12.32256 -0.0143,-22.65058 0.0589,-22.95115 0.0733,-0.30057 0.71577,-1.15407 1.42778,-1.89668 1.44757,-1.50979 2.0351,-1.68735 5.59904,-1.69216 4.26454,-0.006 10.80564,0.2959 11.41153,0.52626 1.00289,0.3813 2.74231,2.27897 3.54733,3.87007 0.62833,1.24188 0.73884,1.79051 0.75958,3.77116 l 0.0243,2.31784 -1.12448,0.0814 c -1.18871,0.086 -1.37757,0.30526 -0.72761,0.84469 0.56316,0.46737 0.49157,1.68437 -0.13229,2.24895 -0.73827,0.66813 -0.66362,0.83344 0.33073,0.73246 1.69669,-0.1723 1.62358,-0.69809 1.62358,11.677 0,6.1912 -0.0878,11.3445 -0.19506,11.45178 -0.10729,0.10729 -0.66607,0.17629 -1.24174,0.15333 -1.17214,-0.0467 -1.29348,0.15402 -0.51751,0.85627 0.3127,0.28298 0.52917,0.8149 0.52917,1.30027 0,0.53485 -0.1846,0.93668 -0.52917,1.15186 -0.80959,0.50561 -0.64914,0.86946 0.24583,0.55747 0.55476,-0.19339 0.9413,-0.18117 1.36019,0.043 0.55383,0.2964 0.57725,0.4357 0.43707,2.59944 -0.1156,1.78433 -0.30796,2.59433 -0.87617,3.68953 -0.84757,1.63365 -2.46946,3.39546 -3.47922,3.77938 -0.89825,0.34151 -14.25138,0.57289 -15.19813,0.26335 z m 8.19377,-2.55275 c 0.0418,-1.17315 -0.0259,-2.40859 -0.15051,-2.74542 -0.35873,-0.96975 -2.39661,-1.60338 -5.15761,-1.60364 -2.20804,-2e-4 -2.33348,0.0309 -2.56336,0.63554 -0.13295,0.34967 -0.36812,0.71388 -0.52262,0.80937 -0.16239,0.10036 -0.2809,1.11947 -0.2809,2.41548 0,2.79593 -0.0912,2.74609 4.89479,2.67471 l 3.70416,-0.053 z m 2.95839,1.93458 c -0.005,-0.1819 -0.33088,-0.92604 -0.72517,-1.65364 l -0.7169,-1.32292 -0.0747,-21.14494 c -0.0801,-22.67206 -0.128,-21.60153 1.15723,-25.88475 0.11415,-0.3804 -0.0295,-0.46302 -0.80493,-0.46302 h -0.94387 v 2.8643 c 0,2.73636 -0.0305,2.89294 -0.6823,3.50573 -0.64851,0.60967 -0.87771,0.64591 -4.62921,0.73182 -3.64646,0.0835 -3.95853,0.0533 -4.09952,-0.39687 -0.0839,-0.268 -0.26297,-0.69401 -0.39787,-0.9467 -0.1349,-0.25269 -0.24527,-1.41355 -0.24527,-2.57969 0,-1.16614 -0.10775,-2.12025 -0.23944,-2.12025 -0.1317,0 -0.54842,0.52721 -0.92604,1.17159 l -0.6866,1.17159 v 21.85242 21.85241 l 0.65073,1.03083 c 1.04689,1.65838 1.20135,1.57706 1.20135,-0.63245 0,-1.10197 0.11037,-2.21032 0.24527,-2.46301 0.1349,-0.25268 0.30975,-0.66779 0.38857,-0.92245 0.12595,-0.40695 0.52399,-0.46302 3.28712,-0.46302 3.45837,0 4.60592,0.2706 5.51331,1.30006 0.53166,0.60318 0.60416,0.96926 0.61153,3.08761 0.005,1.32182 0.0877,2.48268 0.18475,2.57969 0.32154,0.32154 1.94068,0.19219 1.93201,-0.15434 z m 4.21391,-0.57782 c 0.56106,-0.35419 1.27177,-0.97927 1.57936,-1.38907 0.30758,-0.4098 0.66462,-0.87285 0.79341,-1.02901 0.50061,-0.60696 1.3935,-4.02159 1.31223,-5.01827 l -0.0854,-1.04781 -1.32292,0.0769 c -2.19254,0.12747 -2.93465,-0.11464 -3.55044,-1.15833 -0.67139,-1.13792 -0.68857,-1.67465 -0.0876,-2.73642 0.51409,-0.90824 1.61244,-1.33765 3.4276,-1.34006 1.07225,-0.001 1.11992,-0.0374 1.31798,-0.99366 0.26285,-1.26917 0.26795,-19.27377 0.006,-20.24062 -0.17688,-0.65219 -0.31679,-0.72761 -1.34985,-0.72761 -2.05508,0 -2.75029,-0.25848 -3.32781,-1.23732 -0.64807,-1.09839 -0.66828,-1.59258 -0.11082,-2.71002 0.54651,-1.09552 1.13095,-1.2948 3.33489,-1.13711 l 1.7955,0.12847 v -1.60743 c 0,-0.88409 -0.1087,-1.67462 -0.24156,-1.75673 -0.13286,-0.0821 -0.3195,-0.61063 -0.41476,-1.17448 -0.18834,-1.11477 -0.49722,-1.60607 -2.15647,-3.43001 -1.04533,-1.1491 -1.16647,-1.20602 -2.77812,-1.30553 -1.64167,-0.10135 -1.69313,-0.0847 -1.9952,0.64692 -0.96646,2.34068 -1.01285,3.49013 -1.01285,25.09628 v 21.17032 l 0.91407,1.78228 c 0.88665,1.72881 0.94435,1.78228 1.92349,1.78228 0.6136,0 1.40944,-0.25252 2.02954,-0.64397 z m 1.60192,-10.05566 c 0.17385,-0.20948 0.27773,-0.71549 0.23083,-1.12448 -0.1555,-1.35612 -2.33422,-1.08151 -2.33422,0.29421 0,1.11107 1.40882,1.66718 2.10339,0.83027 z m -0.14066,-27.0318 c 0.26892,-0.1032 0.41852,-0.48455 0.41852,-1.06686 0,-1.08657 -0.83991,-1.59065 -1.71979,-1.03216 -1.41488,0.89808 -0.29146,2.7102 1.30127,2.09902 z m -9.63565,-6.66705 0.92604,-0.45222 0.0747,-2.80757 0.0747,-2.80756 -0.83542,-0.16709 c -1.30511,-0.26102 -6.47969,-0.19596 -7.23434,0.091 -0.6585,0.25036 -0.67868,0.32822 -0.67868,2.61753 0,1.85325 0.0851,2.39217 0.39687,2.51179 0.21828,0.0838 0.39688,0.37431 0.39688,0.64566 0,0.27136 0.0794,0.57275 0.17638,0.66977 0.097,0.097 1.43647,0.17067 2.97657,0.16368 2.08348,-0.009 3.03719,-0.12846 3.72621,-0.46494 z m -121.576053,44.2534 c -0.727604,-0.20567 -1.853829,-0.50137 -2.502722,-0.65712 -0.648892,-0.15575 -1.303736,-0.38064 -1.455208,-0.49976 -0.151472,-0.11912 -0.751654,-0.36944 -1.333737,-0.55626 -0.582083,-0.18683 -1.502452,-0.61907 -2.045263,-0.96053 -0.542812,-0.34146 -1.09562,-0.62084 -1.228464,-0.62084 -0.132843,0 -0.310066,-0.17859 -0.393828,-0.39687 -0.08376,-0.21828 -0.312546,-0.39688 -0.508407,-0.39688 -0.513712,0 -3.930605,-3.68525 -4.555288,-4.91305 -0.291042,-0.57204 -0.591122,-1.0996 -0.666844,-1.17236 -0.267045,-0.2566 -0.788385,-1.61801 -0.789995,-2.06297 -8.96e-4,-0.24782 -0.205455,-0.80776 -0.454574,-1.24432 -0.399308,-0.69976 -0.463787,-1.92169 -0.544508,-10.31875 -0.05328,-5.54278 0.01747,-10.1334 0.169225,-10.98021 0.402393,-2.24538 1.367429,-5.64403 1.727935,-6.08542 0.178282,-0.21828 0.459452,-0.71501 0.624823,-1.10385 0.397283,-0.93414 0.939792,-1.58911 2.844354,-3.43396 2.154978,-2.08743 2.273246,-2.1799 3.318641,-2.59472 0.503081,-0.19962 1.093287,-0.51086 1.311568,-0.69164 0.218281,-0.18078 0.897864,-0.46206 1.510183,-0.62507 0.612319,-0.16301 1.176389,-0.39845 1.253487,-0.5232 0.26226,-0.42435 8.195772,-1.55531 9.804039,-1.39762 1.720776,0.16873 15.025944,0.34297 15.394338,0.2016 0.861742,-0.33068 59.448028,-0.51595 61.522408,-0.19456 1.061,0.16439 3.47691,0.49212 5.36868,0.72828 1.89177,0.23616 3.55865,0.52142 3.70417,0.63389 0.14552,0.11248 1.0958,0.3465 2.11173,0.52004 1.01593,0.17355 1.96843,0.41073 2.11667,0.52707 0.14823,0.11634 0.92436,0.36105 1.72473,0.5438 2.1868,0.49932 3.97021,1.39489 5.24802,2.63538 2.05118,1.99128 1.9561,1.01364 1.91758,19.71613 -0.0357,17.33568 -0.1219,18.79835 -1.16939,19.84585 -0.22291,0.22291 -0.47256,0.61722 -0.55477,0.87623 -0.1605,0.50569 -2.91175,2.43635 -3.47188,2.43635 -0.18588,0 -0.37766,0.11032 -0.42616,0.24515 -0.0485,0.13483 -1.10023,0.4404 -2.33715,0.67903 -1.23693,0.23864 -2.54662,0.54453 -2.91042,0.67976 -0.58264,0.21658 -2.73642,0.47422 -10.98021,1.31349 -1.16417,0.11852 -20.09511,0.21692 -42.06875,0.21867 -33.630682,0.003 -40.161415,-0.056 -41.275013,-0.37076 z m 21.828126,-2.38949 v -2.00539 l -0.727605,0.14136 c -0.400182,0.0777 -1.918229,0.22166 -3.373437,0.31982 -1.455209,0.0982 -2.94349,0.29109 -3.307292,0.42876 -0.363802,0.13767 -4.941091,0.3637 -10.171754,0.5023 -5.230662,0.13859 -9.566521,0.30821 -9.635243,0.37694 -0.225353,0.22535 0.128122,0.39486 1.975933,0.94758 4.116534,1.23134 4.322123,1.24879 14.986793,1.27186 l 10.252605,0.0222 z m 65.616677,1.53271 c 0.94589,-0.14051 3.20807,-0.45568 5.02708,-0.70039 3.25846,-0.43835 7.67292,-1.59643 7.67292,-2.01289 0,-0.3852 -4.29053,-0.41547 -5.01783,-0.0354 -0.36889,0.19278 -1.68274,0.46461 -2.91967,0.60407 -1.23693,0.13946 -2.9038,0.38341 -3.70417,0.54212 -3.37735,0.66969 -43.72139,0.53846 -59.134382,-0.19235 -2.782134,-0.13192 -5.330571,-0.60842 -5.712007,-1.06802 -0.168252,-0.20274 -0.469927,-0.36861 -0.67039,-0.36861 -0.275143,0 -0.364478,0.45756 -0.364478,1.86679 v 1.86678 l 31.551577,-0.12332 c 18.20638,-0.0712 32.27897,-0.23136 33.27135,-0.37877 z m -15.08125,-2.14024 3.83646,-0.16519 -1.32292,-1.39357 c -1.56199,-1.64542 -3.04433,-3.34039 -3.34099,-3.82022 -0.16747,-0.27087 -1.74859,-0.32168 -7.56349,-0.24302 -4.04347,0.0547 -8.17603,0.17376 -9.18346,0.26458 -1.68016,0.15148 -1.86974,0.23081 -2.29148,0.95889 -0.85538,1.4767 -1.8826,3.43644 -2.11492,4.0349 l -0.2311,0.59531 9.18772,-0.0332 c 5.05325,-0.0183 10.91413,-0.10758 13.02418,-0.19843 z m -21.92404,-2.01728 c 1.65332,-3.09467 1.61903,-2.89949 0.52483,-2.98733 -2.12452,-0.17054 -14.312928,0.4035 -14.658608,0.69039 -0.19602,0.16268 -1.06645,0.46142 -1.93431,0.66388 -0.86785,0.20246 -1.931767,0.54908 -2.364253,0.77028 -0.432486,0.2212 -1.203057,0.48979 -1.71238,0.59689 -0.509322,0.10709 -1.046687,0.29121 -1.194143,0.40916 -0.147456,0.11795 -0.85298,0.36172 -1.567831,0.54172 -1.216314,0.30628 -1.25854,0.34431 -0.65794,0.59262 0.946741,0.39142 6.810687,0.62193 15.180355,0.59673 l 7.39481,-0.0223 z m 41.23862,1.44851 c 0.50933,-0.1286 1.28139,-0.30804 1.7157,-0.39876 0.77507,-0.16189 0.76042,-0.17899 -0.79375,-0.92654 -0.87087,-0.41888 -1.70247,-0.86049 -1.84799,-0.98135 -0.14552,-0.12086 -0.6813,-0.38378 -1.19062,-0.58426 -0.50932,-0.20047 -1.82802,-0.82115 -2.93044,-1.37928 l -2.00439,-1.01478 h -6.13155 c -3.54856,0 -6.13154,0.10238 -6.13154,0.24302 0,0.24458 0.92198,1.33476 3.23897,3.82989 0.69002,0.74308 1.25557,1.45641 1.25677,1.58519 0.003,0.29205 13.53379,-0.0487 14.81884,-0.37313 z m -86.287629,-0.2303 c 8.801397,-0.34034 14.850299,-0.8276 14.849501,-1.19616 -3.42e-4,-0.15765 -0.35725,-0.70335 -0.79313,-1.21267 -0.435879,-0.50933 -0.792787,-1.06896 -0.793129,-1.24363 -3.41e-4,-0.17467 -0.149643,-0.41279 -0.331781,-0.52916 -0.182139,-0.11637 -0.509561,-0.56878 -0.727605,-1.00534 -0.218043,-0.43656 -0.664334,-1.19732 -0.991755,-1.69057 -0.327422,-0.49324 -0.595313,-1.11832 -0.595313,-1.38906 0,-0.27073 -0.101099,-0.49224 -0.224665,-0.49224 -0.354887,0 -1.628139,-5.25241 -1.900212,-7.83875 -0.346203,-3.291 -0.294109,-7.94129 0.125591,-11.21125 0.399061,-3.10916 1.27898,-6.85821 1.668864,-7.11049 0.140716,-0.0911 0.415607,-0.61204 0.61087,-1.15774 0.195262,-0.5457 0.44458,-0.99219 0.55404,-0.99219 0.10946,0 0.407531,-0.44648 0.662379,-0.99219 0.254849,-0.5457 0.677154,-1.14776 0.938455,-1.33791 0.261302,-0.19016 0.475095,-0.46721 0.475095,-0.61567 0,-0.14846 0.371289,-0.64122 0.825088,-1.09502 0.754306,-0.75431 0.782678,-0.84176 0.330729,-1.01939 -0.271897,-0.10686 -0.917031,-0.20266 -1.43363,-0.21289 -0.516599,-0.0102 -1.05238,-0.12114 -1.190625,-0.24647 -0.680662,-0.61707 -6.756531,-0.87386 -16.236371,-0.68623 l -9.679567,0.19159 -1.315935,1.08886 c -2.550088,2.11006 -3.007076,2.75262 -4.91414,6.9097 -0.709624,1.54686 -0.85856,3.42438 -0.972258,12.25655 -0.136157,10.57675 0.03375,12.66042 1.243343,15.24757 0.439788,0.94065 0.799615,1.83429 0.799615,1.98588 0,0.15159 0.116005,0.27562 0.257788,0.27562 0.141784,0 0.441425,0.35511 0.665869,0.78914 0.621191,1.20125 3.651473,4.05884 4.635229,4.37107 0.289592,0.0919 0.526531,0.29101 0.526531,0.44243 0,0.18355 1.036112,0.22546 3.108854,0.12575 1.70987,-0.0822 6.129894,-0.26636 9.822275,-0.40914 z m 21.596997,-1.09702 c 0.582083,-0.25854 1.504817,-0.55366 2.050521,-0.65581 0.545703,-0.10215 0.992187,-0.26903 0.992187,-0.37085 0,-0.10181 0.625078,-0.34062 1.389063,-0.53069 0.763984,-0.19006 1.74625,-0.50541 2.182813,-0.70076 0.43656,-0.19536 1.74625,-0.58921 2.91042,-0.87522 2.582878,-0.63457 12.546388,-1.00742 33.868928,-1.26743 12.90048,-0.15731 14.13637,-0.13409 15.41198,0.2896 0.76274,0.25334 1.38681,0.57012 1.38681,0.70394 0,0.13383 0.11645,0.24332 0.25878,0.24332 0.14233,0 1.14885,0.41672 2.23672,0.92605 1.08787,0.50932 2.10251,0.92604 2.25476,0.92604 0.15225,0 0.27682,0.11906 0.27682,0.26458 0,0.14552 0.13154,0.26458 0.29231,0.26458 0.16076,0 0.89092,0.30067 1.62257,0.66816 1.23377,0.61969 2.31846,0.67994 2.31846,0.12879 0,-0.12416 0.35817,-0.3044 0.79595,-0.40055 0.43777,-0.0962 0.91915,-0.40504 1.06974,-0.68641 0.30541,-0.57066 0.22595,-0.62147 -1.3915,-0.88989 -0.53955,-0.0895 -1.31346,-0.33621 -1.71979,-0.54815 -0.40633,-0.21194 -0.94011,-0.38609 -1.18619,-0.38698 -0.24607,-9e-4 -0.51902,-0.11751 -0.60655,-0.25914 -0.0875,-0.14162 -0.60057,-0.46229 -1.14009,-0.71258 -0.53952,-0.25029 -1.24884,-0.73586 -1.57626,-1.07905 l -0.59532,-0.62396 v -15.03246 -15.03246 l 0.99219,-0.65135 c 1.4526,-0.9536 3.72336,-1.93792 5.37003,-2.32778 0.79365,-0.18789 1.65494,-0.4872 1.91398,-0.66513 0.44251,-0.30393 0.4345,-0.34701 -0.13229,-0.71223 -0.92961,-0.59901 -2.28861,-1.00031 -2.79355,-0.82492 -0.25056,0.087 -1.42611,0.61779 -2.61233,1.17946 -1.18623,0.56167 -2.22771,1.02122 -2.3144,1.02122 -0.35433,0 -3.745,1.69682 -3.92111,1.96228 -0.25275,0.38097 -23.33925,0.31462 -29.31085,-0.0842 -2.40109,-0.16038 -8.05153,-0.41637 -12.55653,-0.56887 -4.50499,-0.1525 -8.314998,-0.37875 -8.466668,-0.50277 -0.15168,-0.12402 -0.81155,-0.36764 -1.4664,-0.54137 -0.65484,-0.17373 -1.819227,-0.60209 -2.587524,-0.95191 -0.768297,-0.34982 -1.571969,-0.63604 -1.785938,-0.63604 -0.213969,0 -0.389034,-0.0965 -0.389034,-0.21451 0,-0.11798 -0.744141,-0.43723 -1.653646,-0.70945 -0.909505,-0.27221 -1.820792,-0.66175 -2.025083,-0.86563 -0.441208,-0.44032 -2.014497,-0.2279 -2.592428,0.35004 -0.322655,0.32265 -0.172037,0.46679 1.091924,1.04494 0.806414,0.36886 1.825388,0.74249 2.264387,0.83029 0.438999,0.0878 0.798179,0.25186 0.798179,0.36459 0,0.11272 0.922735,0.40847 2.050521,0.65721 1.127787,0.24875 2.169584,0.54267 2.315105,0.65316 0.14552,0.11049 1.09802,0.35133 2.116667,0.5352 1.01865,0.18386 1.97363,0.42961 2.12219,0.54611 0.17723,0.13898 0.19786,1.15048 0.06,2.9417 -0.3695,4.80094 -0.33991,19.85699 0.0487,24.78242 0.40713,5.15998 0.48493,4.89842 -1.54707,5.20084 -0.66714,0.0993 -1.33206,0.2752 -1.47758,0.3909 -0.14552,0.1157 -0.978956,0.36509 -1.852081,0.55419 -0.873125,0.18911 -1.647031,0.41757 -1.719792,0.5077 -0.07276,0.0901 -1.114557,0.38485 -2.315104,0.65495 -1.200547,0.27009 -2.182813,0.57653 -2.182813,0.68097 0,0.10444 -0.535781,0.32481 -1.190625,0.4897 -1.3634,0.3433 -1.506933,0.66459 -0.463021,1.03641 0.834939,0.2974 1.609816,0.17508 3.108855,-0.49075 z m 75.602912,-0.3694 c 0.39919,-0.50031 0.87302,-1.24444 1.05294,-1.65363 0.17993,-0.4092 0.44863,-0.82886 0.59711,-0.93259 0.30243,-0.21127 0.65033,-32.70967 0.3685,-34.42282 -0.19405,-1.17961 -1.31088,-2.66263 -2.76998,-3.67823 -0.82557,-0.57462 -1.32462,-0.71684 -2.48793,-0.709 -0.80036,0.005 -1.69333,0.10738 -1.98437,0.22665 -0.48752,0.19978 -0.46778,0.24102 0.25071,0.52389 1.6741,0.65912 3.0532,1.7496 3.5962,2.84359 0.5418,1.09158 0.54873,1.3502 0.46818,17.4625 -0.0935,18.70294 0.0652,17.45627 -2.52848,19.86025 l -1.49869,1.38906 2.105,-1e-5 c 2.08135,0 2.11315,-0.0102 2.83081,-0.90966 z m -78.923357,-0.65551 c 0.07999,-0.12886 0.85982,-0.43208 1.732945,-0.67383 0.873125,-0.24175 1.825625,-0.54542 2.116666,-0.67481 0.67857,-0.30169 3.046865,-0.94416 6.161938,-1.6716 2.8969,-0.6765 2.85159,-0.60165 2.42923,-4.01354 -0.95835,-7.74164 -0.99559,-17.66012 -0.0994,-26.46657 l 0.16239,-1.59574 -1.28438,-0.28679 c -2.2179,-0.49524 -4.713225,-1.20071 -4.988549,-1.41035 -0.14552,-0.1108 -0.919427,-0.35227 -1.719791,-0.53661 -0.800365,-0.18433 -1.89695,-0.55711 -2.436856,-0.8284 -0.539906,-0.27128 -1.125843,-0.49324 -1.302083,-0.49324 -0.17624,0 -0.508405,-0.16452 -0.738145,-0.36558 -0.829621,-0.72609 -1.487013,-0.73204 -2.292827,-0.0207 -0.423893,0.37417 -1.080695,0.95322 -1.459559,1.28677 -0.378864,0.33355 -0.914646,1.01154 -1.190625,1.50664 -0.275979,0.4951 -0.629629,0.98366 -0.785889,1.08568 -0.15626,0.10202 -0.443207,0.66757 -0.637662,1.25677 -0.194454,0.5892 -0.448969,1.07128 -0.565589,1.07128 -0.11662,0 -0.338425,0.50601 -0.4929,1.12448 -0.154475,0.61846 -0.386106,1.31347 -0.514735,1.54447 -0.354888,0.63732 -0.793197,3.9339 -1.05463,7.93201 -0.322697,4.93504 0.219484,11.68666 1.059671,13.19576 0.126357,0.22696 0.644046,1.33337 1.150419,2.4587 1.211275,2.69185 2.619979,4.86373 3.958209,6.1026 0.896473,0.8299 1.221419,0.97895 1.86609,0.85591 0.429328,-0.0819 0.846047,-0.25442 0.926041,-0.38328 z m 5.772309,-22.44576 c -1.585685,-1.79831 -2.080371,-6.26928 -0.967666,-8.74576 0.534874,-1.19044 1.650942,-2.4033 2.229963,-2.42337 0.151018,-0.005 0.659469,0.31791 1.129891,0.71809 0.71155,0.60531 0.928541,1.07046 1.290977,2.76738 0.379235,1.77558 0.391835,2.33438 0.09726,4.31438 -0.407351,2.73803 -1.124235,3.8323 -2.510633,3.8323 -0.488568,0 -1.038256,-0.20044 -1.26979,-0.46302 z m 0.766073,-1.98437 c -0.0734,-0.1819 -0.133453,-0.0331 -0.133453,0.33073 0,0.3638 0.06005,0.51263 0.133453,0.33073 0.0734,-0.1819 0.0734,-0.47956 0,-0.66146 z m 1.563181,-0.56366 c 0.145324,-0.588 0.104268,-0.73446 -0.179715,-0.64109 -0.202438,0.0666 -0.406324,0.52857 -0.45308,1.02669 -0.10024,1.06792 0.339829,0.79976 0.632795,-0.3856 z m -2.796743,-1.48686 c 0,-0.58208 -0.09244,-1.05833 -0.20543,-1.05833 -0.112986,0 -0.160011,0.47625 -0.104501,1.05833 0.05551,0.58208 0.147954,1.05833 0.20543,1.05833 0.05748,0 0.104501,-0.47625 0.104501,-1.05833 z m 1.852083,0.52917 c 0,-0.44098 0.176389,-0.52917 1.058334,-0.52917 h 1.058333 l -0.0041,-1.25677 c -0.0025,-0.78521 -0.08776,-1.12473 -0.227146,-0.90486 -0.126715,0.19989 -0.553603,0.31419 -0.988136,0.26459 -0.659798,-0.0753 -0.754564,-0.18743 -0.688881,-0.81494 0.05352,-0.51135 -0.04478,-0.7276 -0.330729,-0.7276 -0.334217,0 -0.40689,0.40167 -0.40689,2.24895 0,1.32292 0.108947,2.24896 0.264584,2.24896 0.145521,0 0.264583,-0.23812 0.264583,-0.52916 z m -1.058333,-1.7198 c 0,-0.3638 -0.119063,-0.66145 -0.264584,-0.66145 -0.14552,0 -0.264583,0.29765 -0.264583,0.66145 0,0.36381 0.119063,0.66146 0.264583,0.66146 0.145521,0 0.264584,-0.29765 0.264584,-0.66146 z m -0.868474,-1.91459 c -0.06082,-0.40218 -0.112199,-0.13593 -0.114185,0.59168 -0.002,0.7276 0.04777,1.05666 0.110574,0.73124 0.0628,-0.32542 0.06443,-0.92073 0.0036,-1.32292 z m 2.873122,-0.66509 c -0.220502,-1.38018 -0.683263,-1.95796 -0.678119,-0.84667 0.005,1.08165 0.271353,1.97115 0.590229,1.97115 0.166545,0 0.199723,-0.42449 0.08789,-1.12448 z m -2.267661,-0.99219 c 0.125044,0 0.305378,-0.24584 0.400742,-0.5463 0.09536,-0.30047 0.430809,-0.65011 0.745434,-0.77698 0.335368,-0.13524 0.407842,-0.23594 0.17517,-0.2434 -0.218281,-0.007 -0.522839,0.0748 -0.676795,0.18167 -0.487039,0.33821 -1.176496,1.48685 -1.144596,1.9069 0.02286,0.30103 0.06157,0.28601 0.151692,-0.0589 0.06655,-0.25466 0.223309,-0.46302 0.348353,-0.46302 z m 70.64219,28.76876 0.66146,-1.38439 0.0777,-15.74271 c 0.0427,-8.65848 0.0111,-16.1105 -0.0701,-16.56003 -0.22793,-1.26036 -1.07477,-1.58627 -3.03877,-1.16948 -0.87942,0.18663 -1.59895,0.43111 -1.59895,0.5433 0,0.11219 -0.59531,0.35655 -1.32292,0.54303 -0.7276,0.18648 -1.32291,0.42638 -1.32291,0.5331 0,0.10673 -0.44649,0.33786 -0.99219,0.51363 -0.5457,0.17577 -1.14101,0.43771 -1.32292,0.58208 -0.25755,0.20442 -0.33073,3.55592 -0.33073,15.14766 v 14.88516 l 0.90839,0.69286 c 0.49962,0.38107 0.97234,0.69286 1.0505,0.69286 0.0782,0 0.77071,0.28463 1.539,0.63251 0.7683,0.34788 1.93269,0.71848 2.58753,0.82354 0.65485,0.10507 1.36922,0.29307 1.5875,0.41778 0.70874,0.40492 0.91588,0.25475 1.5875,-1.1509 z m -13.64343,-34.03809 c 0.59165,-0.27875 1.90916,-0.88749 2.92781,-1.35274 1.01864,-0.46525 2.45888,-1.13015 3.20053,-1.47755 0.74164,-0.3474 1.51555,-0.63542 1.71979,-0.64005 0.26653,-0.006 0.2341,-0.11241 -0.11491,-0.37688 -0.26745,-0.20267 -1.33901,-0.50133 -2.38125,-0.6637 -1.04225,-0.16237 -2.08576,-0.39952 -2.31893,-0.52698 -0.41875,-0.22893 -5.11917,-0.65765 -10.05376,-0.91699 -2.28223,-0.11994 -2.59794,-0.0797 -3.10885,0.39629 -0.31277,0.29139 -0.56881,0.61445 -0.56899,0.71792 -1.8e-4,0.10348 -0.26807,0.50424 -0.59531,0.89059 -0.32725,0.38635 -0.89265,1.07719 -1.25645,1.53521 -0.3638,0.45802 -0.98888,1.18781 -1.38906,1.62177 -0.40018,0.43396 -0.72761,0.90397 -0.72761,1.04448 0,0.15759 2.60338,0.25546 6.79564,0.25546 6.14501,0 6.89862,-0.0485 7.87135,-0.50683 z m -14.39627,-1.27911 c 0.62043,-0.83674 1.34594,-1.75948 1.61224,-2.05052 0.98672,-1.07837 2.08579,-2.45611 2.08579,-2.61462 0,-0.0899 -5.89633,-0.1635 -13.10297,-0.1635 H 111.5844 l 0.37349,0.59531 c 0.20542,0.32742 0.51505,1.0418 0.68808,1.5875 0.17302,0.5457 0.42442,0.99219 0.55865,0.99219 0.13424,0 0.24407,0.141 0.24407,0.31334 0,0.17233 0.24677,0.82311 0.54839,1.44616 l 0.54839,1.13282 2.69275,0.0855 c 1.48102,0.047 5.62525,0.11065 9.20941,0.14134 l 6.51665,0.0558 z m -20.37905,1.01109 c 0,-0.13513 -0.17859,-0.42428 -0.39687,-0.64256 -0.21829,-0.21828 -0.39688,-0.47435 -0.39688,-0.56904 0,-0.0947 -0.44648,-1.18161 -0.99219,-2.41538 l -0.99218,-2.24322 -3.96876,0.15424 c -11.679133,0.45389 -16.710753,0.76957 -17.458332,1.09532 -0.438858,0.19123 -0.617567,0.35235 -0.39713,0.35805 0.220436,0.006 0.845083,0.24848 1.388103,0.53952 0.543021,0.29104 1.13657,0.53026 1.318999,0.53159 0.182428,10e-4 0.927,0.29526 1.654605,0.65318 0.727604,0.35792 1.478277,0.65449 1.668162,0.65904 0.189884,0.005 0.904255,0.26653 1.587505,0.58218 1.04598,0.48322 1.99469,0.61054 6.004758,0.80585 2.61938,0.12758 5.59594,0.32961 6.61459,0.44896 2.64666,0.31011 4.36562,0.32675 4.36562,0.0423 z m -29.897927,-5.93616 v -1.94851 l -9.85573,0.0648 c -9.355759,0.0615 -12.431894,0.21683 -13.03073,0.65791 -0.14552,0.10718 -0.740833,0.28073 -1.322916,0.38566 -0.951318,0.17149 -1.737409,0.45951 -3.836459,1.40565 -0.4988,0.22483 1.648289,0.26313 8.731251,0.15572 6.496234,-0.0985 9.923049,-0.0487 11.1125,0.16142 2.70932,0.47867 6.401119,0.99841 7.342188,1.03364 l 0.859896,0.0322 z m 2.974408,1.04285 c 0.682822,-0.29144 2.89956,-0.55186 7.14375,-0.83926 3.384541,-0.22919 7.820589,-0.53687 9.857889,-0.68375 4.78365,-0.34486 39.0423,-0.33756 41.67188,0.009 4.80025,0.63243 9.37786,1.39349 9.63861,1.60248 0.54004,0.43284 2.0713,0.60706 3.75285,0.42699 0.92938,-0.0995 1.68979,-0.27051 1.68979,-0.37996 0,-0.22159 -3.50239,-1.11109 -7.54062,-1.9151 -1.45521,-0.28973 -3.24115,-0.6536 -3.96875,-0.80859 -0.87672,-0.18676 -11.96478,-0.31808 -32.87448,-0.38936 l -31.551577,-0.10755 v 1.98889 c 0,2.23501 -0.223718,2.12254 2.180658,1.09633 z M 9.141433,164.15124 c 0.475549,-0.0589 1.189924,-0.0577 1.5875,0.003 0.397576,0.0604 0.0085,0.10855 -0.864635,0.10707 -0.873125,-0.001 -1.198414,-0.0509 -0.722865,-0.10977 z m 0.276381,-1.04732 c 0.190996,-0.0764 0.419199,-0.067 0.507118,0.0209 0.08792,0.0879 -0.06835,0.15045 -0.347265,0.13896 -0.308225,-0.0127 -0.37092,-0.0754 -0.159853,-0.15985 z M 205.1977,162.82833 c 0.47555,-0.0589 1.18992,-0.0577 1.5875,0.003 0.39758,0.0604 0.008,0.10855 -0.86464,0.10706 -0.87312,-0.001 -1.19841,-0.0509 -0.72286,-0.10976 z M 9.141433,162.03458 c 0.475549,-0.0589 1.189924,-0.0577 1.5875,0.003 0.397576,0.0604 0.0085,0.10855 -0.864635,0.10706 -0.873125,-0.001 -1.198414,-0.0509 -0.722865,-0.10976 z M 205.78827,161.9226 c 0,-0.16266 -0.28326,-0.23298 -0.65345,-0.16221 -0.36342,0.0695 -0.58623,0.0162 -0.50201,-0.12012 0.0833,-0.13477 0.60471,-0.16845 1.15871,-0.0748 0.81024,0.13689 1.06214,0.0758 1.28772,-0.31206 0.15424,-0.26523 0.28406,-0.34799 0.28849,-0.18391 0.009,0.34092 -0.44151,0.73461 -1.11644,0.97521 -0.25792,0.0919 -0.46302,0.0379 -0.46302,-0.12206 z M 9.732007,161.27552 c 0,-0.4265 -0.946048,-0.5096 -1.148733,-0.10091 -0.07397,0.14916 -0.100689,0.11939 -0.05937,-0.0661 0.04798,-0.21543 0.438672,-0.31451 1.081109,-0.27417 0.55329,0.0347 1.184525,-0.0843 1.402744,-0.26458 0.348624,-0.28799 0.35307,-0.25759 0.03664,0.25057 -0.430291,0.691 -1.31239,0.99698 -1.31239,0.45524 z m 194.733353,-1.16586 c 0,-0.14552 0.65484,-0.26458 1.4552,-0.26458 0.80037,0 1.45521,0.11906 1.45521,0.26458 0,0.14552 -0.65484,0.26458 -1.45521,0.26458 -0.80036,0 -1.4552,-0.11906 -1.4552,-0.26458 z M 8.846845,159.64664 c -0.06745,-0.10914 0.390402,-0.19844 1.017453,-0.19844 0.627052,0 1.084906,0.0893 1.017453,0.19844 -0.06745,0.10914 -0.525306,0.19844 -1.017453,0.19844 -0.492146,0 -0.95,-0.0893 -1.017453,-0.19844 z m 196.627235,-0.51147 c 0.191,-0.0764 0.4192,-0.067 0.50712,0.0209 0.0879,0.0879 -0.0684,0.15045 -0.34727,0.13896 -0.30822,-0.0127 -0.37092,-0.0754 -0.15985,-0.15985 z m -1.00872,-0.34843 c 0,-0.14552 0.11906,-0.26458 0.26458,-0.26458 0.14552,0 0.26458,0.11906 0.26458,0.26458 0,0.14553 -0.11906,0.26459 -0.26458,0.26459 -0.14552,0 -0.26458,-0.11906 -0.26458,-0.26459 z m 2.53055,-0.18702 c -0.14359,-0.37709 -0.1132,-0.40748 0.14811,-0.14811 0.18082,0.17947 0.26212,0.39297 0.18065,0.47443 -0.0815,0.0815 -0.2294,-0.0654 -0.32876,-0.32632 z M 8.781588,157.66888 c 0.132766,-0.65645 2.273335,-0.54583 2.273335,0.11749 0,0.23742 -0.07625,0.23621 -0.3175,-0.005 -0.387851,-0.38785 -1.704182,-0.42011 -1.889566,-0.0463 -0.07397,0.14915 -0.103794,0.11939 -0.06627,-0.0661 z m 197.535852,0.0595 c 0,-0.14552 0.23812,-0.26458 0.52917,-0.26458 0.29104,0 0.52916,0.11906 0.52916,0.26458 0,0.14552 -0.23812,0.26458 -0.52916,0.26458 -0.29105,0 -0.52917,-0.11906 -0.52917,-0.26458 z m -1.6685,-0.43378 c -0.27585,-0.27585 0.0735,-0.62455 0.62578,-0.62455 0.28245,0 0.51355,-0.093 0.51355,-0.20658 0,-0.11362 0.35719,-0.3414 0.79375,-0.50618 0.43657,-0.16479 0.79082,-0.22065 0.78724,-0.12415 -0.009,0.2391 -1.75935,1.09402 -2.31947,1.1328 -0.24868,0.0172 -0.0949,0.12219 0.34161,0.23327 0.76308,0.19418 0.76734,0.20319 0.11024,0.23328 -0.37593,0.0172 -0.75964,-0.0448 -0.8527,-0.13789 z M 8.585771,156.51752 c 0.08804,-0.22943 0.441491,-0.52414 0.785446,-0.65491 0.883486,-0.3359 0.775754,-0.72784 -0.234523,-0.85322 -0.48103,-0.0597 -0.160451,-0.12117 0.727604,-0.13954 l 1.587501,-0.0328 -0.793751,0.65062 c -0.436562,0.35785 -0.883046,0.65122 -0.992187,0.65195 -0.109141,7.2e-4 -0.198438,0.11319 -0.198438,0.24992 0,0.13674 0.446485,0.29532 0.992188,0.3524 0.740781,0.0775 0.608802,0.11506 -0.520863,0.14826 -1.279387,0.0376 -1.48833,-0.0199 -1.352977,-0.37266 z M 205.1977,154.62624 c 0.47555,-0.0589 1.18992,-0.0577 1.5875,0.003 0.39758,0.0604 0.008,0.10855 -0.86464,0.10707 -0.87312,-0.001 -1.19841,-0.0509 -0.72286,-0.10977 z m 0.59057,-0.90573 c 0,-0.16265 -0.28326,-0.23297 -0.65345,-0.16221 -0.36342,0.0695 -0.58623,0.0162 -0.50201,-0.12011 0.0833,-0.13477 0.60471,-0.16845 1.15871,-0.0748 0.81024,0.13688 1.06214,0.0758 1.28772,-0.31206 0.15424,-0.26524 0.28406,-0.34799 0.28849,-0.18391 0.009,0.34092 -0.44151,0.7346 -1.11644,0.97521 -0.25792,0.0919 -0.46302,0.0379 -0.46302,-0.12207 z M 8.40909,152.96591 c 0,-0.14552 0.654844,-0.26458 1.455208,-0.26458 0.800365,0 1.455209,0.11906 1.455209,0.26458 0,0.14552 -0.654844,0.26458 -1.455209,0.26458 -0.800364,0 -1.455208,-0.11906 -1.455208,-0.26458 z m 0,-1.05833 c 0,-0.14552 0.119063,-0.26458 0.264583,-0.26458 0.145521,0 0.264584,0.11906 0.264584,0.26458 0,0.14552 -0.119063,0.26458 -0.264584,0.26458 -0.14552,0 -0.264583,-0.11906 -0.264583,-0.26458 z m 92.73646,-26.87598 c -1.309688,-0.20151 -2.619378,-0.48557 -2.910418,-0.63124 -0.29104,-0.14566 -1.11961,-0.39206 -1.84126,-0.54754 -0.72165,-0.15548 -1.436029,-0.38016 -1.587501,-0.49928 -0.151472,-0.11912 -0.751653,-0.36619 -1.333736,-0.54905 -1.412781,-0.44383 -6.245601,-2.61206 -6.482292,-2.90827 -0.07276,-0.0911 -0.549011,-0.32724 -1.058334,-0.52484 -0.509323,-0.19761 -1.104635,-0.50093 -1.322916,-0.67406 -0.218282,-0.17313 -0.783829,-0.48024 -1.256771,-0.68247 -0.472943,-0.20223 -0.859896,-0.43961 -0.859896,-0.52751 0,-0.0879 -0.47625,-0.37457 -1.058334,-0.63705 -0.582083,-0.26248 -1.058333,-0.57822 -1.058333,-0.70164 0,-0.12342 -0.13759,-0.2244 -0.305755,-0.2244 -0.168165,0 -0.696002,-0.29766 -1.172971,-0.66146 -0.47697,-0.3638 -0.971773,-0.66146 -1.099564,-0.66146 -0.12779,0 -0.478991,-0.22978 -0.780446,-0.51063 -0.301455,-0.28085 -1.068046,-0.64301 -1.703536,-0.80479 -0.63549,-0.16179 -1.393561,-0.40651 -1.684603,-0.54383 -0.491917,-0.23209 -1.859394,-0.51223 -9.128125,-1.86995 -5.223686,-0.97574 -8.863246,-1.55433 -9.802813,-1.5584 -0.516599,-0.002 -1.052381,-0.10805 -1.190625,-0.23515 -0.138245,-0.12709 -1.311401,-0.36328 -2.607013,-0.52486 -1.359163,-0.1695 -2.543184,-0.46349 -2.798958,-0.69496 -0.243815,-0.22065 -0.587401,-0.40118 -0.763523,-0.40118 -0.326919,0 -1.922599,-1.54135 -2.734346,-2.64124 -0.247721,-0.33566 -0.524772,-0.94889 -0.615669,-1.36274 -0.0909,-0.41385 -0.275169,-0.82037 -0.409494,-0.90339 -0.134325,-0.083 -0.244227,-1.43847 -0.244227,-3.012109 0,-2.30783 0.104734,-3.09794 0.541548,-4.08543 0.297851,-0.67334 0.655039,-1.22426 0.79375,-1.22426 0.138711,0 0.252202,-0.17584 0.252202,-0.39077 0,-0.21493 0.327422,-0.59913 0.727604,-0.85379 0.400183,-0.25465 0.787136,-0.54189 0.859896,-0.63831 0.07276,-0.0964 0.668073,-0.32064 1.322917,-0.49827 0.654844,-0.17762 1.42875,-0.42766 1.719792,-0.55563 0.598232,-0.26305 8.504007,-0.78722 9.000375,-0.59675 0.363326,0.13943 0.650431,2.09075 0.656149,4.45957 0.0056,2.30115 0.450637,4.69708 0.921509,4.960599 0.221197,0.12378 0.402175,0.38851 0.402175,0.58828 0,0.39475 2.670375,2.84914 2.876071,2.64345 0.06914,-0.0691 -0.438147,-0.66598 -1.127305,-1.32631 -2.557259,-2.450279 -3.571639,-6.867739 -2.263485,-9.857099 0.915524,-2.09214 1.066912,-2.33745 2.198085,-3.56182 1.516093,-1.64099 3.557009,-2.6212 5.793236,-2.78236 1.765551,-0.12724 4.958816,0.35352 4.958816,0.74657 0,0.1114 0.327421,0.32185 0.727604,0.46767 1.177999,0.42925 2.764321,2.13579 3.696101,3.97621 0.882963,1.74401 1.169962,3.73522 0.856713,5.94391 -0.146823,1.03524 -0.359944,1.94691 -0.473602,2.02595 -0.113658,0.079 -0.374677,0.55844 -0.580042,1.065359 -0.362468,0.8947 -3.009506,3.70854 -3.488699,3.70854 -0.130867,0 -0.737424,0.22272 -1.347904,0.49493 -0.61048,0.27222 -1.288557,0.56599 -1.506838,0.65282 -0.218281,0.0868 0.07938,0.0861 0.661458,-0.002 2.236184,-0.33719 4.636271,-2.14253 5.91298,-4.44773 1.415232,-2.555319 1.661721,-3.578009 1.607211,-6.668389 l -0.05049,-2.86222 1.027648,-0.13229 c 0.565206,-0.0728 12.30882,-0.10134 26.096924,-0.0635 l 25.06927,0.0688 0.0313,1.65099 0.0313,1.65099 0.26192,-1.25677 c 0.14406,-0.69122 0.35521,-1.25677 0.46921,-1.25677 0.114,0 0.27911,-0.28619 0.3669,-0.63599 0.24139,-0.96175 2.10703,-3.18557 3.1106,-3.70779 0.4885,-0.25419 1.24537,-0.6585 1.68194,-0.89846 0.58872,-0.3236 1.4896,-0.43759 3.48776,-0.4413 2.48501,-0.005 2.81166,0.0566 4.21045,0.78875 2.03094,1.06306 3.4544,2.55171 4.42743,4.63021 0.68107,1.45485 0.80771,2.04966 0.82202,3.86106 0.009,1.1777 -0.11765,2.42786 -0.28214,2.77813 -0.16448,0.35027 -0.50939,1.14155 -0.76646,1.75841 -0.54548,1.308859 -2.44314,3.262119 -4.0634,4.182439 -2.29695,1.3047 -6.01391,1.33795 -8.49712,0.076 -1.61082,-0.81859 -3.38027,-2.64188 -4.3005,-4.431319 -0.65092,-1.26576 -0.73912,-1.35225 -0.61454,-0.60261 0.08,0.48139 0.32564,1.05544 0.54587,1.275669 0.22023,0.22023 0.40042,0.54572 0.40042,0.72331 0,0.37341 1.85461,2.19785 3.0998,3.04937 1.48218,1.01357 3.40175,1.42922 5.93966,1.28613 2.58347,-0.14567 4.13151,-0.74397 5.73447,-2.21631 0.53283,-0.48942 1.03795,-0.89042 1.1225,-0.89111 0.0846,-7e-4 0.32097,-0.32869 0.52537,-0.72887 0.2044,-0.40018 0.59852,-1.04749 0.87583,-1.438449 0.40902,-0.57668 0.55161,-1.47562 0.7554,-4.7625 0.1742,-2.80955 0.35946,-4.13727 0.6043,-4.33093 0.39929,-0.31583 4.66745,-0.0125 5.55204,0.39464 0.29104,0.13394 1.18401,0.38673 1.98438,0.56175 0.80036,0.17503 1.57427,0.40618 1.71979,0.51368 0.14552,0.1075 0.72616,0.34425 1.29031,0.52611 1.19246,0.3844 2.92967,1.50987 3.85206,2.49561 l 0.64446,0.68872 -0.0334,5.891399 c -0.0323,5.68715 -0.4468,9.53566 -1.07274,9.95892 -0.12243,0.0828 -0.45176,0.55946 -0.73185,1.05927 -0.69238,1.23555 -0.98378,1.57273 -3.39425,3.92749 -1.1502,1.12362 -3.11473,3.06529 -4.36563,4.31485 -2.55932,2.55656 -3.5859,3.22779 -5.82335,3.80757 -2.19405,0.56854 -45.92578,0.55546 -49.63226,-0.0148 z m 49.54324,-0.63819 c 0.56126,-0.37181 0.59531,-0.57237 0.59531,-3.50573 0,-1.71124 -0.097,-3.11135 -0.21557,-3.11135 -0.11857,0 -0.41894,0.38695 -0.66749,0.8599 -0.24855,0.47294 -0.74867,1.27661 -1.11139,1.78593 -0.36272,0.50933 -0.79636,1.12517 -0.96364,1.36855 -0.16729,0.24338 -0.79054,0.64256 -1.38501,0.88706 -0.59447,0.2445 -1.28454,0.54948 -1.5335,0.67773 -0.93046,0.47934 -10.0596,0.76326 -24.6611,0.76699 -14.29337,0.004 -17.97157,-0.1516 -18.80709,-0.79378 -0.14553,-0.11185 -0.97897,-0.34808 -1.85209,-0.52495 -0.873128,-0.17688 -2.086988,-0.54697 -2.697468,-0.82243 -0.61048,-0.27546 -1.1873,-0.50083 -1.28182,-0.50083 -0.25722,0 -5.969863,-2.85788 -6.760282,-3.38199 -2.134555,-1.41537 -2.881969,-1.966 -4.081439,-3.00688 -1.717651,-1.49053 -3.567535,-3.50935 -3.567535,-3.89333 0,-0.16562 -0.119063,-0.30114 -0.264584,-0.30114 -0.14552,0 -0.264583,-0.17859 -0.264583,-0.39687 0,-0.34402 -1.064213,-0.39688 -7.990417,-0.39688 -4.475303,0 -7.879842,0.10005 -7.739063,0.22743 0.138245,0.12509 1.320758,0.37155 2.627807,0.54769 1.307048,0.17614 2.497673,0.41338 2.645833,0.5272 0.14816,0.11382 1.31146,0.4093 2.58511,0.65662 2.272666,0.44131 4.356552,1.28955 4.775023,1.94367 0.116372,0.1819 0.361812,0.33073 0.545422,0.33073 0.183611,0 0.57071,0.20836 0.860221,0.46302 0.548225,0.48223 1.022506,0.77913 3.012981,1.88613 0.654844,0.3642 1.250156,0.72876 1.322917,0.81015 0.07276,0.0814 0.54901,0.35561 1.058333,0.60938 0.509323,0.25376 1.104635,0.57028 1.322917,0.70336 0.867089,0.52867 5.44061,2.67769 5.69246,2.6748 0.147676,-0.002 0.683457,0.21607 1.190625,0.48395 0.507168,0.26787 1.515852,0.63387 2.241521,0.81333 0.725673,0.17945 1.440043,0.42328 1.587503,0.54184 0.14745,0.11855 0.98247,0.36008 1.8556,0.53673 0.87312,0.17665 1.825618,0.42308 2.116668,0.54761 0.29104,0.12454 0.82682,0.27594 1.19063,0.33645 0.3638,0.0605 11.31756,0.0952 24.34167,0.0772 20.50179,-0.0285 23.76011,-0.0858 24.27552,-0.42724 z m 2.84961,-1.2604 c 1.09154,-0.7455 8.06446,-7.5138 8.06446,-7.8278 0,-0.0961 -0.65601,-0.17471 -1.4578,-0.17471 -1.15377,0 -1.55383,0.115 -1.91823,0.55145 -0.25324,0.30329 -0.99621,1.11455 -1.65106,1.8028 -0.65484,0.68825 -1.78594,1.94822 -2.51354,2.79994 -0.7276,0.85173 -1.53128,1.7338 -1.78594,1.96017 -0.53171,0.47263 -0.62545,1.61744 -0.13229,1.61575 0.1819,-6.2e-4 0.80938,-0.32804 1.3944,-0.7276 z m -41.6097,-0.19731 c -0.0356,-0.29104 -0.33328,-2.59923 -0.66146,-5.1293 -0.67207,-5.18135 -0.48901,-4.8799 -3.13345,-5.16006 -2.18561,-0.23155 -24.571876,-0.79019 -24.744574,-0.61749 -0.08335,0.0834 -0.05134,0.32896 0.07115,0.5458 0.310524,0.54976 5.155904,4.40793 5.535815,4.40793 0.170843,0 0.454459,0.17331 0.630259,0.38514 0.364171,0.4388 3.945479,2.26069 4.443856,2.26069 0.180612,0 0.328385,0.11448 0.328385,0.25439 0,0.13991 0.495252,0.38774 1.100561,0.55073 0.60531,0.163 1.34945,0.45355 1.65365,0.64569 0.30419,0.19213 0.9698,0.4343 1.47912,0.53815 0.50933,0.10385 1.04511,0.28284 1.19063,0.39775 0.14552,0.11492 1.336138,0.41547 2.645838,0.6679 1.30969,0.25243 2.49772,0.56473 2.64006,0.69401 0.14234,0.12927 1.74968,0.20192 3.57187,0.16144 3.13722,-0.0697 3.30963,-0.10169 3.24829,-0.60277 z m 18.40436,-0.46302 c 0.42362,-0.61846 0.85386,-1.39166 0.95609,-1.71822 0.10223,-0.32656 0.34287,-0.75074 0.53475,-0.94263 0.19189,-0.19188 0.63057,-0.85766 0.97486,-1.47949 0.99981,-1.80583 1.40326,-2.49222 1.91968,-3.26595 0.26634,-0.39906 0.42409,-0.88236 0.35055,-1.074 -0.1051,-0.27389 -2.63655,-0.41898 -11.83249,-0.67815 -6.43433,-0.18135 -11.766,-0.2625 -11.84816,-0.18034 -0.0821,0.0821 1.4e-4,1.13054 0.18287,2.32975 0.86075,5.64872 1.0498,6.98543 1.06613,7.5382 l 0.0176,0.59531 h 8.45395 8.45396 z m 11.19629,0.52036 c 3.65983,-0.30967 4.55928,-0.4705 5.34415,-0.95558 0.51904,-0.32078 1.0174,-0.81545 1.10748,-1.09927 0.0901,-0.28381 0.27856,-0.51603 0.41884,-0.51603 0.14028,0 0.33148,-0.20836 0.42487,-0.46302 0.0934,-0.25466 0.68498,-1.20662 1.31462,-2.11547 0.70407,-1.01629 1.14479,-1.94651 1.14479,-2.41631 0,-0.75741 -0.0162,-0.76518 -1.91822,-0.92086 -2.70747,-0.22159 -11.04766,-0.56647 -11.84011,-0.4896 -1.45304,0.14095 -1.75634,0.33694 -2.39014,1.5445 -0.35891,0.68383 -0.87497,1.67029 -1.14681,2.19215 -0.27183,0.52185 -0.58326,1.00835 -0.69206,1.08111 -0.1088,0.0728 -0.45551,0.60854 -0.77047,1.19063 -0.31496,0.58208 -0.86674,1.58307 -1.22617,2.22443 -0.35943,0.64135 -0.65352,1.21914 -0.65352,1.28397 0,0.17515 5.8688,-0.11641 10.88275,-0.54065 z m 15.02037,-6.49629 1.95833,-2.16 h 2.18055 c 1.74919,0 2.2125,-0.0832 2.34201,-0.42075 0.2891,-0.75337 -0.1017,-0.90217 -2.36941,-0.90217 -2.01488,0 -2.23334,-0.049 -2.23334,-0.50086 0,-0.27547 -0.19321,-0.575 -0.42934,-0.66561 -0.84369,-0.32375 -0.12183,-8.09395 0.75192,-8.09395 0.11362,0 0.20658,-0.17859 0.20658,-0.39687 0,-0.33161 0.54387,-0.39688 3.30729,-0.39688 h 3.3073 v -1.55127 -1.551279 l -1.78594,-0.16496 c -0.98227,-0.0907 -4.30676,-0.24443 -7.38777,-0.34154 l -5.60183,-0.17656 -0.40146,0.960819 c -0.45991,1.10073 -0.72174,1.45466 -2.06269,2.7883 -1.38206,1.37454 -1.70252,1.6083 -2.80845,2.04871 -0.54243,0.21602 -1.27404,0.53624 -1.62579,0.71162 -0.38148,0.1902 -1.74565,0.31358 -3.38056,0.30575 l -2.74101,-0.0131 0.0733,3.58499 0.0733,3.585 4.7625,0.1861 c 2.61937,0.10236 5.74476,0.32305 6.94531,0.49043 l 2.18281,0.30432 0.004,3.74291 0.004,3.74291 1.38554,-1.47802 c 0.76204,-0.81291 2.26678,-2.45002 3.34386,-3.63802 z m -19.28853,-4.0277 c 0,-0.28246 -0.10518,-0.51355 -0.23373,-0.51355 -0.27183,0 -0.56957,0.96059 -0.36205,1.16811 0.25086,0.25086 0.59578,-0.12809 0.59578,-0.65456 z m -1.38307,0.0137 c 0.27257,-0.43653 0.27257,-0.55989 0,-0.64753 -0.39076,-0.12565 -7.63098,-0.36144 -17.73308,-0.57751 -6.91225,-0.14784 -7.0776,-0.13922 -7.0776,0.3689 0,0.49929 0.28102,0.52803 6.96195,0.71204 3.82907,0.10546 7.60931,0.28129 8.40052,0.39073 0.79121,0.10943 3.16498,0.22005 5.27503,0.2458 3.60073,0.044 3.85715,0.0137 4.17318,-0.49243 z m -25.653,-0.99027 -0.0837,-0.72761 -4.49792,-0.17291 c -9.404248,-0.36153 -23.680124,-0.55956 -23.676169,-0.32844 0.01224,0.71535 0.617081,0.83648 5.023032,1.00594 2.546614,0.0979 5.939896,0.23903 7.540625,0.31352 1.600734,0.0745 5.708382,0.22986 9.128132,0.34527 3.41974,0.11542 6.31492,0.22829 6.43372,0.25084 0.11881,0.0225 0.17834,-0.28643 0.1323,-0.68661 z m 54.30211,-0.26459 c 0.17578,-0.5457 0.44433,-1.14898 0.59678,-1.34062 0.15246,-0.19164 0.33083,-1.65016 0.39638,-3.24115 l 0.11919,-2.89271 h -3.08325 c -3.0121,0 -3.08882,0.0147 -3.32495,0.63576 -0.13295,0.34967 -0.36812,0.71388 -0.52262,0.80937 -0.17046,0.10534 -0.2809,1.31182 -0.2809,3.06841 0,2.39676 0.0683,2.8948 0.39687,2.8948 0.22049,0 0.39688,0.23518 0.39688,0.52916 0,0.49173 0.17638,0.52917 2.49302,0.52917 h 2.49302 z m -29.38271,-0.57641 c 0,-0.13513 -0.16315,-0.40884 -0.36256,-0.60825 -0.19942,-0.19941 -0.57322,-0.77346 -0.83067,-1.27567 -0.25746,-0.50221 -0.55456,-0.97264 -0.66023,-1.0454 -0.10567,-0.0728 -0.45205,-0.60854 -0.76975,-1.19062 -0.31769,-0.58208 -0.78001,-1.41552 -1.02737,-1.85208 -1.65466,-2.92029 -2.13185,-3.8535 -2.57056,-5.027089 -0.27199,-0.7276 -0.64167,-1.56104 -0.82152,-1.85208 -0.17984,-0.29104 -0.47938,-1.27722 -0.66565,-2.19151 -0.26458,-1.29872 -0.4569,-1.69112 -0.87923,-1.79391 -0.29732,-0.0724 -4.05293,-0.0982 -8.34579,-0.0574 l -7.80521,0.0741 0.0291,1.32292 c 0.10796,4.915879 0.6673,15.089679 0.83905,15.261429 0.11447,0.11447 3.53784,0.24177 7.60751,0.28291 4.06966,0.0411 9.39369,0.10259 11.83116,0.13658 2.59521,0.0362 4.43177,-0.04 4.43177,-0.1839 z m 2.11667,-2.50371 v -2.7494 l -1.0442,-0.4178 c -1.05875,-0.42363 -3.54224,-2.65056 -4.337,-3.88896 -0.88501,-1.379029 -1.32561,-3.307279 -1.47755,-6.466319 l -0.15271,-3.175 -23.8125,-0.0727 c -13.096887,-0.04 -24.080403,-0.008 -24.407825,0.0712 -0.418718,0.10123 -0.595313,0.33864 -0.595313,0.80034 v 0.65642 h 23.006768 23.00677 l 0.17031,0.99219 c 0.0937,0.5457 0.45626,1.72686 0.80574,2.62481 0.34948,0.89794 0.63542,1.70899 0.63542,1.80232 0,0.39598 3.87211,7.818269 4.21232,8.074429 0.0966,0.0728 0.35416,0.48948 0.57229,0.92604 1.08025,2.16203 2.18368,3.57187 2.79557,3.57187 0.61292,0 0.62191,-0.0397 0.62191,-2.74939 z m -27.14526,-1.41779 c -0.0593,-1.70987 -0.18007,-5.34128 -0.26832,-8.069789 l -0.16046,-4.96094 H 95.697952 81.708758 l -0.145442,0.59531 c -0.07999,0.32742 -0.112027,3.86953 -0.07119,7.871349 l 0.07425,7.27605 9.260417,0.13745 c 5.093229,0.0756 11.541157,0.16489 14.328717,0.19843 l 5.06829,0.061 z m -29.453539,2.46979 c 0.06063,-0.0604 0.05071,-4.0788 -0.02205,-8.92969 -0.114065,-7.604629 -0.186971,-8.819789 -0.529166,-8.819789 -0.324398,0 -0.421574,0.60397 -0.53212,3.30729 -0.113888,2.785 -0.23298,3.49532 -0.754125,4.49792 -1.768232,3.401789 -3.664651,5.214049 -6.237221,5.960429 -2.971478,0.86211 -7.95154,0.20776 -9.525904,-1.25164 -0.282101,-0.2615 -0.618858,-0.47546 -0.748348,-0.47546 -0.460022,0 -2.405673,-2.26657 -2.895792,-3.37344 l -0.49792,-1.124479 H 51.523793 44.12784 v 0.66146 c 0,0.657449 0.01484,0.661499 2.447396,0.667499 2.223502,0.005 2.602995,0.0841 4.148258,0.8599 0.96209,0.48298 2.03722,1.27493 2.475256,1.8233 0.680616,0.85204 0.791353,1.24127 0.914435,3.21413 l 0.140042,2.24469 1.626501,0.17419 c 0.894575,0.0958 1.801285,0.28472 2.014911,0.41983 0.372876,0.23583 22.535015,0.37586 22.767752,0.14386 z M 53.26666,106.20081 c -0.279079,-3.11401 -0.316427,-3.19443 -1.829087,-3.93868 -2.072576,-1.01974 -3.295709,-1.29404 -5.391503,-1.2091 -1.780276,0.0721 -1.918229,0.11986 -1.918229,0.66356 0,1.26532 1.904976,4.11335 3.439584,5.14234 0.642811,0.43103 3.993752,1.29887 5.256606,1.36139 0.622456,0.0308 0.625241,0.0181 0.442629,-2.01951 z m 14.337441,-1.28433 c -0.08792,-0.0879 -0.316122,-0.0973 -0.507118,-0.0209 -0.211067,0.0845 -0.148372,0.14715 0.159852,0.15985 0.278915,0.0115 0.435185,-0.0511 0.347266,-0.13896 z m -2.045009,-0.57589 c 0,-0.23032 -1.625459,-0.90199 -1.788429,-0.73902 -0.05694,0.0569 0.143565,0.18195 0.445573,0.27781 0.302008,0.0958 0.549106,0.28532 0.549106,0.42103 0,0.13572 0.178594,0.24675 0.396875,0.24675 0.218281,0 0.396875,-0.093 0.396875,-0.20657 z m 5.185307,-0.2904 c 1.032908,-0.26835 2.461658,-0.87657 3.175,-1.3516 2.233271,-1.48719 3.012669,-2.862669 3.97495,-7.014969 0.135762,-0.58582 -0.97603,-4.62172 -1.430779,-5.19386 -1.570258,-1.9756 -2.609627,-2.89381 -3.715457,-3.28235 -0.679743,-0.23883 -1.44264,-0.54275 -1.695327,-0.67537 -0.527274,-0.27673 -3.729823,-0.3293 -3.993571,-0.0656 -0.09656,0.0966 -0.78852,0.39143 -1.537677,0.65525 -1.226359,0.43188 -2.747881,1.71534 -4.107195,3.46458 -1.02918,1.3244 -1.473794,5.19557 -0.858934,7.47856 0.431432,1.60192 2.65932,4.630199 3.406406,4.630199 0.13011,0 0.404775,0.16822 0.610367,0.37381 0.283154,0.28315 2.919478,1.19723 4.16191,1.44304 0.07276,0.0144 0.977399,-0.19339 2.010307,-0.46174 z m -3.748572,-2.66194 c -0.799818,-0.19137 -2.538599,-1.26805 -2.720503,-1.684579 -0.05123,-0.1173 -0.303312,-0.41496 -0.560186,-0.66145 -1.042407,-1.0003 -1.448759,-4.07011 -0.829832,-6.26901 0.368101,-1.30778 1.77064,-2.84635 3.265333,-3.58205 3.283541,-1.61619 7.592381,0.35874 8.735016,4.00364 0.587359,1.87363 0.581547,2.11445 -0.09795,4.05871 -0.505828,1.44733 -1.103049,2.22622 -2.665113,3.475839 -1.014026,0.8112 -3.275463,1.10184 -5.126762,0.6589 z m 3.72264,-0.78291 c 1.529057,-0.58 3.425409,-2.535739 3.676611,-3.791749 0.714623,-3.57312 -1.136909,-6.74244 -4.286083,-7.33661 -2.591642,-0.48898 -4.634091,0.40158 -6.203549,2.7049 -1.390563,2.04078 -0.871179,5.66974 1.060696,7.41111 0.616706,0.555899 2.943732,1.482239 3.76795,1.499949 0.363802,0.008 1.256771,-0.2116 1.984375,-0.4876 z m 72.003823,3.38561 c 1.11508,-0.30592 2.2685,-0.78081 2.56314,-1.05531 0.29464,-0.2745 0.72308,-0.56441 0.95209,-0.64425 0.76624,-0.26713 2.34991,-2.647279 2.80654,-4.218019 0.60234,-2.07197 0.43053,-4.89548 -0.40262,-6.61653 -0.90255,-1.86442 -2.87546,-3.77584 -4.48088,-4.34121 -0.73961,-0.26046 -1.42376,-0.55258 -1.52033,-0.64914 -0.26375,-0.26375 -3.4663,-0.21118 -3.99357,0.0656 -0.25269,0.13262 -0.99521,0.43345 -1.65006,0.66851 -1.33397,0.47885 -2.13089,1.11576 -3.33388,2.66447 -0.82228,1.0586 -1.95778,4.25587 -1.95778,5.51261 0,0.89765 1.31497,4.936199 1.60724,4.936199 0.12719,0 0.41002,0.34569 0.62851,0.7682 0.21849,0.42252 0.84662,1.04131 1.39585,1.3751 0.54923,0.33379 1.06084,0.69548 1.13691,0.80376 0.11699,0.16653 3.43289,1.21047 4.02593,1.26748 0.10752,0.0103 1.10783,-0.23151 2.22291,-0.53743 z m -4.00589,-2.53755 c -1.05957,-0.24422 -2.98116,-1.778839 -3.71384,-2.965939 -1.1296,-1.83023 -1.23129,-4.28646 -0.2556,-6.1736 2.08501,-4.03274 7.00021,-4.93136 10.07203,-1.84142 1.73047,1.74068 2.07252,2.67008 1.91069,5.19172 -0.13519,2.10645 -0.74168,3.26876 -2.45958,4.713669 -1.24862,1.0502 -3.64782,1.51485 -5.5537,1.07557 z m 3.58366,-0.80906 c 1.69383,-0.651949 2.46792,-1.343179 3.26444,-2.915049 1.36615,-2.69597 0.58001,-5.71472 -1.93522,-7.43109 -1.11171,-0.75863 -1.49545,-0.87212 -2.96271,-0.87623 -0.92708,-0.003 -1.98325,0.11134 -2.34705,0.25319 -1.03787,0.40467 -2.8112,2.2137 -3.14046,3.20367 -0.4573,1.37496 -0.35592,3.71243 0.21561,4.97128 0.52643,1.15952 2.37421,2.728299 3.21352,2.728299 0.26062,0 0.54744,0.11907 0.63737,0.26459 0.25273,0.40892 1.72466,0.3132 3.0545,-0.19866 z m 23.21767,-3.129829 c 0.0771,-1.32214 0.0579,-1.36012 -1.17899,-2.32374 -0.69158,-0.5388 -1.53053,-1.04819 -1.86435,-1.13197 -0.33383,-0.0838 -0.60695,-0.2428 -0.60695,-0.35337 0,-0.11057 -0.74414,-0.40534 -1.65365,-0.65505 -0.9095,-0.24971 -2.13086,-0.6114 -2.71412,-0.80375 -0.58326,-0.19235 -2.1457,-0.43462 -3.47208,-0.53838 l -2.41162,-0.18866 -0.19249,3.33726 c -0.10586,1.83549 -0.18085,3.42724 -0.16664,3.53722 0.0239,0.18466 8.49035,0.50947 12.46268,0.47812 l 1.71979,-0.0136 z M 58.284303,95.882061 c -0.102969,-1.27331 -0.267243,-2.79135 -0.365053,-3.37344 l -0.177836,-1.05833 -1.713557,0.0747 c -7.205072,0.31394 -9.49957,1.01288 -11.036454,3.36189 -0.588038,0.89878 -0.863562,1.63742 -0.863562,2.31511 v 0.99521 h 7.171839 7.171839 z m 73.066697,1.19063 c -0.0734,-0.18191 -0.13345,-0.0331 -0.13345,0.33072 0,0.36381 0.0601,0.51263 0.13345,0.33073 0.0734,-0.1819 0.0734,-0.47955 0,-0.66145 z m -30.71222,-13.13828 c -0.29049,-0.32098 -0.42567,-0.82438 -0.37174,-1.38428 0.0668,-0.69308 0.24468,-0.93577 0.8381,-1.14321 0.62562,-0.2187 0.81626,-0.17729 1.12448,0.24423 0.46362,0.63404 0.46494,1.71592 0.003,2.32466 -0.457,0.60202 -1.02473,0.58727 -1.59367,-0.0414 z m 1.58257,-0.66156 c 0.29896,-1.19116 -0.89917,-2.40193 -1.31208,-1.32592 -0.21342,0.55617 -0.20449,1.56606 0.0158,1.78635 0.4069,0.40689 1.14435,0.14496 1.29629,-0.46043 z m 1.04088,-0.42152 v -1.5875 l 1.98437,0.0264 c 1.23945,0.0165 1.73659,0.0953 1.32431,0.21004 -0.74112,0.20622 -1.07952,1.0865 -0.41767,1.0865 0.22896,0 0.41628,0.11907 0.41628,0.26459 0,0.14552 -0.14883,0.23482 -0.33073,0.19844 -0.20935,-0.0419 -0.31245,0.20089 -0.28092,0.66145 0.0369,0.53854 -0.0719,0.72761 -0.41864,0.72761 -0.40606,0 -0.45238,-0.19382 -0.34778,-1.45521 l 0.12068,-1.45521 h -0.82651 c -0.63964,0 -0.82652,0.11526 -0.82652,0.50977 0,0.28037 0.20836,0.56421 0.46302,0.63076 0.4141,0.10822 0.4106,0.12425 -0.0331,0.1517 -0.40644,0.0251 -0.4674,0.17414 -0.33734,0.82444 0.10727,0.53636 0.0537,0.79375 -0.16537,0.79375 -0.21975,0 -0.32411,-0.51117 -0.32411,-1.5875 z m 5.46346,1.23822 c -0.2543,-0.30641 -0.19172,-0.34961 0.35506,-0.24508 0.89095,0.17031 0.86935,-0.41246 -0.0422,-1.13933 -0.48368,-0.38567 -0.65069,-0.70709 -0.53035,-1.02068 0.21181,-0.55197 1.26662,-0.4734 1.45709,0.10854 0.11008,0.33632 0.0645,0.34293 -0.29841,0.0434 -0.41383,-0.34155 -0.98066,-0.22921 -0.98066,0.19436 0,0.11357 0.30546,0.34568 0.67881,0.51579 0.52789,0.24052 0.66025,0.47007 0.59532,1.03239 -0.0933,0.80801 -0.75925,1.08345 -1.23463,0.51064 z m 1.88443,0.0185 c 0.0638,-0.1819 0.43088,-0.29645 0.8158,-0.25457 0.6634,0.0722 0.69985,0.0148 0.69985,-1.10243 0,-0.69531 -0.13562,-1.23331 -0.33073,-1.31204 -0.1819,-0.0734 0.15683,-0.14285 0.75274,-0.15434 1.778,-0.0343 2.59312,1.4619 1.43007,2.62495 -0.40279,0.40279 -0.88194,0.52916 -2.00642,0.52916 -1.06726,0 -1.44508,-0.0918 -1.36131,-0.33073 z m 3.11627,-0.61112 c 0.48246,-0.58133 0.0171,-1.83627 -0.68095,-1.83627 -0.4259,0 -0.53787,0.2084 -0.60415,1.12448 -0.0697,0.96354 -0.008,1.12448 0.43062,1.12448 0.28159,0 0.66611,-0.18571 0.85448,-0.41269 z m 1.17751,-0.64565 v -1.5875 h 0.85989 c 0.47294,0 0.8599,0.10255 0.8599,0.22789 0,0.12535 -0.29766,0.171 -0.66146,0.10145 -0.53704,-0.10266 -0.66146,-0.0211 -0.66146,0.43357 0,0.38362 0.16667,0.56001 0.52917,0.56001 0.29104,0 0.52916,0.10791 0.52916,0.23981 0,0.1319 -0.23812,0.17754 -0.52916,0.10143 -0.40609,-0.10619 -0.52917,-0.008 -0.52917,0.42165 0,0.42097 0.16424,0.56003 0.66146,0.56003 0.3638,0 0.66146,0.11906 0.66146,0.26458 0,0.14552 -0.38696,0.26458 -0.8599,0.26458 h -0.85989 z m -4.23334,-1.32291 c -0.0899,-0.14553 0.0221,-0.26459 0.24897,-0.26459 0.22687,0 0.41249,0.11906 0.41249,0.26459 0,0.14552 -0.11204,0.26458 -0.24897,0.26458 -0.13693,0 -0.32255,-0.11906 -0.41249,-0.26458 z"
       id="path1" /></g><g
     inkscape:groupmode="layer"
     id="layer3"
     inkscape:label="Hotspot"><rect
       style="fill:#0000ff;fill-opacity:0.25098;stroke-width:0.264583"
       id="rightFrontDoor"
       width="28.431999"
       height="15.368693"
       x="81.069855"
       y="94.517464"
       ry="0.38421732" /><rect
       style="fill:#0000ff;fill-opacity:0.25098;stroke-width:0.264583"
       id="rightRearDoor"
       width="15.369"
       height="14.984475"
       x="111.03881"
       y="94.90168"
       ry="0.38421732" /><path
       style="fill:#0000ff;fill-opacity:0.25098;stroke-width:0.264583"
       d="m 81.069856,90.291072 c 50.332474,0.384218 50.332474,0.384218 50.332474,0.384218 l 6.91591,16.13713 -0.38422,4.99482 -11.52652,-18.826647 -46.874513,1.152652 z"
       id="rightSideSill" /><path
       style="fill:#0000ff;fill-opacity:0.25098;stroke-width:0.264583"
       d="m 82.606726,111.42303 c 29.200514,1.15265 29.200514,1.15265 29.200514,1.15265 v 11.1423 z"
       id="rightFrontWindow" /><path
       style="fill:#0000ff;fill-opacity:0.25098;stroke-width:0.264583"
       d="m 111.80724,113.34411 c 24.97413,0.76844 24.97413,0.76844 24.97413,0.76844 l -7.30013,10.75808 -18.05821,-1.53687 z"
       id="rightRearWindow" /><path
       style="fill:#0000ff;fill-opacity:0.25098;stroke-width:0.264583"
       d="m 58.785251,98.743853 8.068564,6.531697 10.373868,-4.99483 3.842173,-8.452778 -0.768434,18.442428 -26.510996,-1.92108 c 0,0 5.379043,-0.76844 0,-4.22639 -5.379043,-3.45796 -5.379043,-3.45796 -5.379043,-3.45796 h -4.610608 v -1.921087 z"
       id="rightFrontFender" /><path
       style="fill:#0000ff;fill-opacity:0.25098;stroke-width:0.264583"
       d="m 137.16559,104.50711 c 9.98965,1.53687 9.98965,1.53687 9.98965,1.53687 l 3.45795,-8.068561 14.21604,1.152652 1.92109,4.226389 h -8.06856 l -0.76844,6.91591 1.53687,2.68952 h 3.07374 c 0,0 1.15265,1.92109 -1.53687,1.92109 -2.68952,0 -2.68952,0 -2.68952,0 l -6.14748,5.76326 v -6.14748 l -14.60026,-1.53687 z"
       id="rightRearFender" /><path
       style="fill:#0000ff;fill-opacity:0.25098;stroke-width:0.264583"
       d="m 83.759378,136.78137 -6.915912,9.60543 -1.152652,15.75291 3.457956,11.14231 4.994825,4.99482 -29.968952,0.76844 -7.300129,-9.22122 -1.152652,-18.05822 1.921087,-10.75808 6.531694,-6.14748 z"
       id="hood" /><path
       style="fill:#0000ff;fill-opacity:0.25098;stroke-width:0.264583"
       d="m 84.91203,136.01293 14.600258,5.76326 -1.152652,31.12161 -14.600258,4.61061 3.457956,1.53687 14.984476,-4.61061 45.72186,-1.15265 8.45278,4.6106 4.61061,-2.68952 -9.60543,-4.22639 0.76843,-27.66365 9.98965,-6.14747 -4.61061,-0.76844 -9.60543,4.22639 -49.179817,-1.15265 z"
       id="roof" /><path
       style="fill:#0000ff;fill-opacity:0.25098;stroke-width:0.264583"
       d="m 84.527812,136.78137 13.063389,4.99482 0.768435,30.73739 -13.831824,4.61061 -6.147477,-6.14748 -2.689521,-14.98447 1.921086,-11.91074 z"
       id="frontWindshield" /><path
       style="fill:#0000ff;fill-opacity:0.25098;stroke-width:0.264583"
       d="m 153.30271,143.69728 -0.76843,27.27943 7.68435,4.99483 3.84217,-3.07374 -0.76844,-32.65848 -1.92108,-0.76843 -9.22122,1.15265 z"
       id="rearWindshield" /><path
       style="fill:#0000ff;fill-opacity:0.25098;stroke-width:0.264583"
       d="m 175.97154,132.9392 c 0.38421,5.76326 0.38421,5.76326 0.38421,5.76326 l 8.06857,-0.38422 v -7.30013 l 4.99482,0.76843 -3.45795,3.84218 v 43.03234 l 2.68952,4.61061 h -3.07374 l -0.38422,-6.14748 -6.91591,-0.76844 h -1.92109 l -1.15265,6.14748 -1.92108,-3.45795 v -43.03235 z"
       id="trunk" /><path
       style="fill:#0000ff;fill-opacity:0.25098;stroke-width:0.264583"
       d="m 190.18758,132.17076 -3.45796,3.84217 v 44.185 l 1.92109,3.45795 6.14748,-3.84217 1.53686,-6.14748 h -3.84217 l -2.68952,-2.3053 5.37904,-3.45796 0.76844,-20.74773 -5.76326,-1.92109 v -3.84217 l 6.14747,0.38421 c 0,0 2.30531,-2.3053 -6.14747,-9.60543 z"
       id="rearBumper" /><path
       style="fill:#0000ff;fill-opacity:0.25098;stroke-width:0.264583"
       d="m 175.97154,131.40233 v 6.53169 l 1.15265,0.76844 8.45278,-0.38422 -0.38422,-7.30013 z"
       id="tailLight_1" /><path
       style="fill:#0000ff;fill-opacity:0.25098;stroke-width:0.264583"
       d="m 175.58732,182.11901 c 11.52652,1.53687 9.98965,1.15266 9.98965,1.15266 l -0.76843,-4.22639 -1.53687,-2.68953 h -7.30013 z"
       id="tailLight_2" /><path
       style="fill:#0000ff;fill-opacity:0.25098;stroke-width:0.264583"
       d="m 27.663648,132.9392 c -8.836999,2.3053 -8.836999,2.3053 -8.836999,2.3053 v 43.41656 l 9.605433,4.99482 -1.152652,-4.6106 z"
       id="frontBumper" /><path
       style="fill:#0000ff;fill-opacity:0.25098;stroke-width:0.264583"
       d="m 32.658473,131.78654 c 1.536869,3.84218 0.768435,6.14748 0.768435,6.14748 l -0.768435,44.95343 2.305304,0.38422 1.536869,-4.61061 0.768435,-43.80078 z"
       id="lowerFrontBumper" /><path
       style="fill:#0000ff;fill-opacity:0.25098;stroke-width:0.264583"
       d="m 82.990943,204.78784 c 28.047867,-0.76844 28.047867,-0.76844 28.047867,-0.76844 l -0.76844,16.13713 -29.968948,0.76843 z"
       id="leftFrontDoor" /><path
       style="fill:#0000ff;fill-opacity:0.25098;stroke-width:0.264583"
       d="m 111.80724,204.0194 c 25.74256,-1.15265 25.74256,-1.15265 25.74256,-1.15265 l -6.53169,5.76326 -4.22639,10.75808 -17.674,1.15266 z"
       id="leftRearDoor" /><path
       style="fill:#0000ff;fill-opacity:0.25098;stroke-width:0.264583"
       d="m 136.78137,200.94566 15.36869,-1.53687 v -8.06856 l 6.91591,7.30013 h 3.45796 l 2.3053,3.84217 -7.30013,-1.15265 1.53687,9.22122 h 6.5317 l -0.38422,4.22639 -14.98447,0.38421 -1.92109,-4.6106 -5.76326,-2.30531 -4.99483,-0.38422 z"
       id="leftRearFender" /><path
       style="fill:#0000ff;fill-opacity:0.25098;stroke-width:0.264583"
       d="m 53.790426,204.78784 27.663648,-1.53687 -0.384218,19.21086 h -1.536869 l -2.689521,-11.1423 -11.142303,-3.07374 -6.915912,6.91591 -15.368693,-0.38421 1.152652,-2.30531 h 6.531695 l 3.073738,-3.45795 z"
       id="leftFrontFender" /><path
       style="fill:#0000ff;fill-opacity:0.25098;stroke-width:0.264583"
       d="m 112.19146,190.18758 c -1.92109,11.1423 -1.92109,11.1423 -1.92109,11.1423 l -28.432079,0.76843 9.221216,-6.14747 11.526523,-5.76326 z"
       id="leftFrontWindow" /><path
       style="fill:#0000ff;fill-opacity:0.25098;stroke-width:0.264583"
       d="m 113.34411,190.95601 c 19.21087,-0.76843 16.90556,-0.38422 16.90556,-0.38422 l 4.61061,9.22122 -24.58991,0.76844 z"
       id="leftRearWindow" /><path
       style="fill:#0000ff;fill-opacity:0.25098;stroke-width:0.264583"
       d="m 64.932729,86.064682 c -4.610608,6.531694 -4.610608,6.531694 -4.610608,6.531694 l 0.384217,8.836994 9.98965,4.2264 8.452782,-8.837003 -4.610608,-9.989651 z"
       id="wheel_1" /><path
       style="fill:#0000ff;fill-opacity:0.25098;stroke-width:0.264583"
       d="m 133.70763,88.754203 c 7.68435,-3.457956 9.60543,-2.689521 9.60543,-2.689521 l 6.5317,6.147477 -1.15265,9.605431 -8.06857,4.22639 -9.22121,-6.915909 z"
       id="wheel_2" /><path
       style="fill:#0000ff;fill-opacity:0.25098;stroke-width:0.264583"
       d="m 139.08667,208.24579 c 9.22122,3.84218 9.22122,3.84218 9.22122,3.84218 l 2.3053,11.52652 -8.837,4.6106 -7.68434,-3.45795 -3.84218,-9.22122 z"
       id="wheel_3" /><path
       style="fill:#0000ff;fill-opacity:0.25098;stroke-width:0.264583"
       d="m 68.390684,210.16688 c 7.30013,1.15265 7.30013,1.15265 7.30013,1.15265 l 1.921086,7.68435 -2.689521,8.06856 -6.915912,0.38422 -6.531694,-3.84217 -1.53687,-9.22122 z"
       id="wheel_4" /><path
       style="fill:#0000ff;fill-opacity:0.25098;stroke-width:0.264583"
       d="m 26.895213,145.23415 c 7.300129,1.53687 7.300129,1.53687 7.300129,1.53687 l -2.305304,23.05304 -5.76326,-0.38422 z"
       id="grill" /><path
       style="fill:#0000ff;fill-opacity:0.25098;stroke-width:0.264583"
       d="m 27.27943,169.05562 c 6.147478,0.38422 6.147478,0.38422 6.147478,0.38422 l -0.768435,14.21604 -4.610608,-1.92108 -1.152652,-2.68952 z"
       id="headLight_1" /><path
       style="fill:#0000ff;fill-opacity:0.25098;stroke-width:0.264583"
       d="m 29.200517,132.9392 c -3.073739,3.84217 -3.073739,3.84217 -3.073739,3.84217 l 0.384218,9.60543 6.915912,-0.38422 -0.384218,-12.67917 z"
       id="headLight_2" /></g></svg>
